<svg width="27" height="32" viewBox="0 0 27 32" fill="none" xmlns="http://www.w3.org/2000/svg">
<path d="M9.4223 32H0V19.0373H2.29341V29.6678H7.1289V17.3831H0V0H14.5341C21.138 0 26.5261 5.58644 26.5261 12.3932C26.5261 19.2542 21.138 24.7864 14.5341 24.7864H10.6105V22.3458H14.5341C19.8117 22.3458 24.1775 17.817 24.1775 12.339C24.1775 6.86102 19.8117 2.3322 14.5341 2.3322H2.34867V15.0237H7.1289V6.42712H14.1473C17.0762 6.42712 19.4249 8.8678 19.4249 11.9051C19.4249 14.9424 17.0209 17.3831 14.1473 17.3831H9.4223V32ZM9.4223 14.9966H14.1749C15.8052 14.9966 17.1591 13.5593 17.1591 11.9051C17.1591 10.1966 15.8052 8.81356 14.1749 8.81356H9.4223V14.9966Z" fill="#155EEF"/>
</svg>
