<svg width="507" height="84" viewBox="0 0 507 84" fill="none" xmlns="http://www.w3.org/2000/svg">
<path d="M0.520891 27V1.62H9.73689C12.6409 1.62 15.0889 2.124 17.0809 3.132C19.0969 4.116 20.6209 5.556 21.6529 7.452C22.6849 9.324 23.2009 11.604 23.2009 14.292C23.2009 16.956 22.6849 19.236 21.6529 21.132C20.6209 23.028 19.0969 24.48 17.0809 25.488C15.0889 26.496 12.6409 27 9.73689 27H0.520891ZM5.16489 23.148H9.44889C12.5209 23.148 14.8009 22.416 16.2889 20.952C17.7769 19.488 18.5209 17.268 18.5209 14.292C18.5209 11.292 17.7769 9.072 16.2889 7.632C14.8009 6.168 12.5209 5.436 9.44889 5.436H5.16489V23.148ZM34.6028 27.36C33.0188 27.36 31.6268 26.988 30.4268 26.244C29.2268 25.476 28.2908 24.384 27.6188 22.968C26.9468 21.552 26.6108 19.86 26.6108 17.892C26.6108 15.924 26.9468 14.244 27.6188 12.852C28.2908 11.436 29.2268 10.356 30.4268 9.612C31.6268 8.844 33.0188 8.46 34.6028 8.46C36.1388 8.46 37.4828 8.844 38.6348 9.612C39.8108 10.356 40.5908 11.364 40.9748 12.636H40.5788L40.9748 8.82H45.2948C45.2228 9.564 45.1508 10.32 45.0788 11.088C45.0308 11.856 45.0068 12.612 45.0068 13.356V27H40.5428L40.5068 23.256H40.9388C40.5548 24.504 39.7748 25.5 38.5988 26.244C37.4228 26.988 36.0908 27.36 34.6028 27.36ZM35.8628 23.904C37.2788 23.904 38.4188 23.412 39.2828 22.428C40.1468 21.42 40.5788 19.908 40.5788 17.892C40.5788 15.876 40.1468 14.376 39.2828 13.392C38.4188 12.408 37.2788 11.916 35.8628 11.916C34.4468 11.916 33.3068 12.408 32.4428 13.392C31.5788 14.376 31.1468 15.876 31.1468 17.892C31.1468 19.908 31.5668 21.42 32.4068 22.428C33.2708 23.412 34.4228 23.904 35.8628 23.904ZM49.871 27V13.464C49.871 12.696 49.847 11.916 49.799 11.124C49.775 10.332 49.715 9.564 49.619 8.82H53.975L54.479 13.788H53.759C53.999 12.588 54.395 11.592 54.947 10.8C55.523 10.008 56.219 9.42 57.035 9.036C57.851 8.652 58.739 8.46 59.699 8.46C60.131 8.46 60.479 8.484 60.743 8.532C61.007 8.556 61.271 8.616 61.535 8.712L61.499 12.672C61.043 12.48 60.647 12.36 60.311 12.312C59.999 12.264 59.603 12.24 59.123 12.24C58.091 12.24 57.215 12.456 56.495 12.888C55.799 13.32 55.271 13.92 54.911 14.688C54.575 15.456 54.407 16.332 54.407 17.316V27H49.871ZM64.0398 27V13.356C64.0398 12.612 64.0158 11.856 63.9678 11.088C63.9198 10.32 63.8478 9.564 63.7518 8.82H68.1078L68.4678 12.42H68.0358C68.5398 11.172 69.3078 10.2 70.3398 9.504C71.3958 8.808 72.6438 8.46 74.0838 8.46C75.5238 8.46 76.7118 8.808 77.6478 9.504C78.6078 10.176 79.2798 11.232 79.6638 12.672H79.0878C79.5918 11.376 80.4198 10.356 81.5718 9.612C82.7238 8.844 84.0438 8.46 85.5318 8.46C87.5718 8.46 89.0958 9.06 90.1038 10.26C91.1118 11.46 91.6158 13.332 91.6158 15.876V27H87.1158V16.056C87.1158 14.616 86.8758 13.584 86.3958 12.96C85.9158 12.312 85.1478 11.988 84.0918 11.988C82.8438 11.988 81.8598 12.432 81.1398 13.32C80.4198 14.184 80.0598 15.36 80.0598 16.848V27H75.5598V16.056C75.5598 14.616 75.3198 13.584 74.8398 12.96C74.3598 12.312 73.5918 11.988 72.5358 11.988C71.2878 11.988 70.3038 12.432 69.5838 13.32C68.8878 14.184 68.5398 15.36 68.5398 16.848V27H64.0398ZM104.627 27.36C102.755 27.36 101.135 26.976 99.7667 26.208C98.3987 25.44 97.3307 24.348 96.5627 22.932C95.8187 21.516 95.4467 19.836 95.4467 17.892C95.4467 15.948 95.8187 14.28 96.5627 12.888C97.3307 11.472 98.3987 10.38 99.7667 9.612C101.135 8.844 102.755 8.46 104.627 8.46C106.499 8.46 108.119 8.844 109.487 9.612C110.879 10.38 111.947 11.472 112.691 12.888C113.459 14.28 113.843 15.948 113.843 17.892C113.843 19.836 113.459 21.516 112.691 22.932C111.947 24.348 110.879 25.44 109.487 26.208C108.119 26.976 106.499 27.36 104.627 27.36ZM104.627 23.904C106.043 23.904 107.171 23.412 108.011 22.428C108.851 21.42 109.271 19.908 109.271 17.892C109.271 15.876 108.851 14.376 108.011 13.392C107.171 12.408 106.043 11.916 104.627 11.916C103.211 11.916 102.083 12.408 101.243 13.392C100.403 14.376 99.9827 15.876 99.9827 17.892C99.9827 19.908 100.403 21.42 101.243 22.428C102.083 23.412 103.211 23.904 104.627 23.904ZM122.412 27L115.32 8.82H119.964L125.076 22.968H124.14L129.324 8.82H132.528L137.676 22.968H136.848L141.924 8.82H146.316L139.224 27H135.264L129.828 12.528H131.736L126.408 27H122.412ZM157.586 27.36C154.538 27.36 152.15 26.52 150.422 24.84C148.694 23.16 147.83 20.856 147.83 17.928C147.83 16.032 148.202 14.376 148.946 12.96C149.69 11.544 150.722 10.44 152.042 9.648C153.386 8.856 154.946 8.46 156.722 8.46C158.474 8.46 159.938 8.832 161.114 9.576C162.29 10.32 163.178 11.364 163.778 12.708C164.402 14.052 164.714 15.624 164.714 17.424V18.612H151.466V16.236H161.51L160.898 16.74C160.898 15.06 160.538 13.776 159.818 12.888C159.122 12 158.102 11.556 156.758 11.556C155.27 11.556 154.118 12.084 153.302 13.14C152.51 14.196 152.114 15.672 152.114 17.568V18.036C152.114 20.004 152.594 21.48 153.554 22.464C154.538 23.424 155.918 23.904 157.694 23.904C158.726 23.904 159.686 23.772 160.574 23.508C161.486 23.22 162.35 22.764 163.166 22.14L164.498 25.164C163.634 25.86 162.602 26.4 161.402 26.784C160.202 27.168 158.93 27.36 157.586 27.36Z" fill="white"/>
<path d="M183.443 27L176.351 8.82H180.995L186.107 22.968H185.171L190.355 8.82H193.559L198.707 22.968H197.879L202.955 8.82H207.347L200.255 27H196.295L190.859 12.528H192.767L187.439 27H183.443ZM210.738 35.172L209.694 31.608C210.822 31.368 211.77 31.092 212.538 30.78C213.306 30.468 213.942 30.06 214.446 29.556C214.95 29.052 215.37 28.404 215.706 27.612L216.606 25.488L216.498 27.252L208.578 8.82H213.366L219.054 23.004H218.01L223.734 8.82H228.27L219.99 28.008C219.438 29.304 218.838 30.372 218.19 31.212C217.542 32.076 216.846 32.76 216.102 33.264C215.358 33.792 214.542 34.2 213.654 34.488C212.766 34.776 211.794 35.004 210.738 35.172ZM237.35 27.36C235.766 27.36 234.362 26.988 233.138 26.244C231.938 25.476 231.002 24.384 230.33 22.968C229.658 21.552 229.322 19.86 229.322 17.892C229.322 15.924 229.658 14.244 230.33 12.852C231.002 11.436 231.938 10.356 233.138 9.612C234.362 8.844 235.766 8.46 237.35 8.46C238.862 8.46 240.194 8.832 241.346 9.576C242.522 10.296 243.302 11.28 243.686 12.528H243.218V0.503998H247.718V27H243.29V23.148H243.722C243.338 24.444 242.558 25.476 241.382 26.244C240.23 26.988 238.886 27.36 237.35 27.36ZM238.61 23.904C240.026 23.904 241.166 23.412 242.03 22.428C242.894 21.42 243.326 19.908 243.326 17.892C243.326 15.876 242.894 14.376 242.03 13.392C241.166 12.408 240.026 11.916 238.61 11.916C237.194 11.916 236.042 12.408 235.154 13.392C234.29 14.376 233.858 15.876 233.858 17.892C233.858 19.908 234.29 21.42 235.154 22.428C236.042 23.412 237.194 23.904 238.61 23.904ZM259.638 27.36C258.054 27.36 256.662 26.988 255.462 26.244C254.262 25.476 253.326 24.384 252.654 22.968C251.982 21.552 251.646 19.86 251.646 17.892C251.646 15.924 251.982 14.244 252.654 12.852C253.326 11.436 254.262 10.356 255.462 9.612C256.662 8.844 258.054 8.46 259.638 8.46C261.174 8.46 262.518 8.844 263.67 9.612C264.846 10.356 265.626 11.364 266.01 12.636H265.614L266.01 8.82H270.33C270.258 9.564 270.186 10.32 270.114 11.088C270.066 11.856 270.042 12.612 270.042 13.356V27H265.578L265.542 23.256H265.974C265.59 24.504 264.81 25.5 263.634 26.244C262.458 26.988 261.126 27.36 259.638 27.36ZM260.898 23.904C262.314 23.904 263.454 23.412 264.318 22.428C265.182 21.42 265.614 19.908 265.614 17.892C265.614 15.876 265.182 14.376 264.318 13.392C263.454 12.408 262.314 11.916 260.898 11.916C259.482 11.916 258.342 12.408 257.478 13.392C256.614 14.376 256.182 15.876 256.182 17.892C256.182 19.908 256.602 21.42 257.442 22.428C258.306 23.412 259.458 23.904 260.898 23.904ZM274.906 27V13.464C274.906 12.696 274.882 11.916 274.834 11.124C274.81 10.332 274.75 9.564 274.654 8.82H279.01L279.514 13.788H278.794C279.034 12.588 279.43 11.592 279.982 10.8C280.558 10.008 281.254 9.42 282.07 9.036C282.886 8.652 283.774 8.46 284.734 8.46C285.166 8.46 285.514 8.484 285.778 8.532C286.042 8.556 286.306 8.616 286.57 8.712L286.534 12.672C286.078 12.48 285.682 12.36 285.346 12.312C285.034 12.264 284.638 12.24 284.158 12.24C283.126 12.24 282.25 12.456 281.53 12.888C280.834 13.32 280.306 13.92 279.946 14.688C279.61 15.456 279.442 16.332 279.442 17.316V27H274.906ZM288.531 27V24.048L299.907 11.124V12.204H288.531V8.82H303.975V11.772L292.491 24.804L292.455 23.616H304.371V27H288.531ZM316.632 27.36C313.584 27.36 311.196 26.52 309.468 24.84C307.74 23.16 306.876 20.856 306.876 17.928C306.876 16.032 307.248 14.376 307.992 12.96C308.736 11.544 309.768 10.44 311.088 9.648C312.432 8.856 313.992 8.46 315.768 8.46C317.52 8.46 318.984 8.832 320.16 9.576C321.336 10.32 322.224 11.364 322.824 12.708C323.448 14.052 323.76 15.624 323.76 17.424V18.612H310.512V16.236H320.556L319.944 16.74C319.944 15.06 319.584 13.776 318.864 12.888C318.168 12 317.148 11.556 315.804 11.556C314.316 11.556 313.164 12.084 312.348 13.14C311.556 14.196 311.16 15.672 311.16 17.568V18.036C311.16 20.004 311.64 21.48 312.6 22.464C313.584 23.424 314.964 23.904 316.74 23.904C317.772 23.904 318.732 23.772 319.62 23.508C320.532 23.22 321.396 22.764 322.212 22.14L323.544 25.164C322.68 25.86 321.648 26.4 320.448 26.784C319.248 27.168 317.976 27.36 316.632 27.36ZM327.571 27V13.356C327.571 12.612 327.547 11.856 327.499 11.088C327.451 10.32 327.379 9.564 327.283 8.82H331.639L331.999 12.42H331.567C332.143 11.148 332.995 10.176 334.123 9.504C335.251 8.808 336.559 8.46 338.047 8.46C340.183 8.46 341.791 9.06 342.871 10.26C343.951 11.46 344.491 13.332 344.491 15.876V27H339.991V16.092C339.991 14.628 339.703 13.584 339.127 12.96C338.575 12.312 337.735 11.988 336.607 11.988C335.215 11.988 334.111 12.42 333.295 13.284C332.479 14.148 332.071 15.3 332.071 16.74V27H327.571ZM349.262 27V8.82H353.762V27H349.262ZM349.01 5.4V1.008H354.014V5.4H349.01ZM365.669 27.36C364.085 27.36 362.693 26.988 361.493 26.244C360.293 25.476 359.357 24.384 358.685 22.968C358.013 21.552 357.677 19.86 357.677 17.892C357.677 15.924 358.013 14.244 358.685 12.852C359.357 11.436 360.293 10.356 361.493 9.612C362.693 8.844 364.085 8.46 365.669 8.46C367.205 8.46 368.549 8.844 369.701 9.612C370.877 10.356 371.657 11.364 372.041 12.636H371.645L372.041 8.82H376.361C376.289 9.564 376.217 10.32 376.145 11.088C376.097 11.856 376.073 12.612 376.073 13.356V27H371.609L371.573 23.256H372.005C371.621 24.504 370.841 25.5 369.665 26.244C368.489 26.988 367.157 27.36 365.669 27.36ZM366.929 23.904C368.345 23.904 369.485 23.412 370.349 22.428C371.213 21.42 371.645 19.908 371.645 17.892C371.645 15.876 371.213 14.376 370.349 13.392C369.485 12.408 368.345 11.916 366.929 11.916C365.513 11.916 364.373 12.408 363.509 13.392C362.645 14.376 362.213 15.876 362.213 17.892C362.213 19.908 362.633 21.42 363.473 22.428C364.337 23.412 365.489 23.904 366.929 23.904ZM380.469 27V21.996H385.509V27H380.469ZM412.382 27.36C409.526 27.36 407.126 26.832 405.182 25.776C403.238 24.72 401.774 23.22 400.79 21.276C399.806 19.332 399.314 17.028 399.314 14.364C399.314 11.676 399.842 9.36 400.898 7.416C401.954 5.448 403.466 3.936 405.434 2.88C407.426 1.8 409.814 1.26 412.598 1.26C414.446 1.26 416.066 1.512 417.458 2.016C418.85 2.496 420.074 3.204 421.13 4.14L419.582 7.74C418.814 7.14 418.082 6.66 417.386 6.3C416.69 5.94 415.97 5.688 415.226 5.544C414.482 5.376 413.618 5.292 412.634 5.292C409.85 5.292 407.738 6.084 406.298 7.668C404.882 9.228 404.174 11.472 404.174 14.4C404.174 17.328 404.846 19.56 406.19 21.096C407.558 22.632 409.694 23.4 412.598 23.4C413.582 23.4 414.566 23.304 415.55 23.112C416.558 22.92 417.542 22.644 418.502 22.284L417.638 24.228V16.632H411.698V13.248H421.49V25.452C420.314 26.052 418.91 26.52 417.278 26.856C415.646 27.192 414.014 27.36 412.382 27.36ZM426.394 27V13.464C426.394 12.696 426.37 11.916 426.322 11.124C426.298 10.332 426.238 9.564 426.142 8.82H430.498L431.002 13.788H430.282C430.522 12.588 430.918 11.592 431.47 10.8C432.046 10.008 432.742 9.42 433.558 9.036C434.374 8.652 435.262 8.46 436.222 8.46C436.654 8.46 437.002 8.484 437.266 8.532C437.53 8.556 437.794 8.616 438.058 8.712L438.022 12.672C437.566 12.48 437.17 12.36 436.834 12.312C436.522 12.264 436.126 12.24 435.646 12.24C434.614 12.24 433.738 12.456 433.018 12.888C432.322 13.32 431.794 13.92 431.434 14.688C431.098 15.456 430.93 16.332 430.93 17.316V27H426.394ZM447.115 27.36C444.883 27.36 443.215 26.748 442.111 25.524C441.007 24.3 440.455 22.428 440.455 19.908V8.82H444.955V19.872C444.955 21.216 445.231 22.212 445.783 22.86C446.335 23.484 447.175 23.796 448.303 23.796C449.575 23.796 450.607 23.364 451.399 22.5C452.215 21.636 452.623 20.496 452.623 19.08V8.82H457.123V27H452.731V23.292H453.235C452.707 24.588 451.903 25.596 450.823 26.316C449.767 27.012 448.531 27.36 447.115 27.36ZM462.009 34.776V13.356C462.009 12.612 461.985 11.856 461.937 11.088C461.889 10.32 461.817 9.564 461.721 8.82H466.077L466.473 12.636H466.077C466.437 11.364 467.193 10.356 468.345 9.612C469.521 8.844 470.877 8.46 472.413 8.46C474.021 8.46 475.425 8.844 476.625 9.612C477.825 10.356 478.761 11.436 479.433 12.852C480.105 14.244 480.441 15.924 480.441 17.892C480.441 19.86 480.105 21.552 479.433 22.968C478.761 24.384 477.825 25.476 476.625 26.244C475.425 26.988 474.021 27.36 472.413 27.36C470.901 27.36 469.569 26.988 468.417 26.244C467.265 25.5 466.497 24.504 466.113 23.256H466.509V34.776H462.009ZM471.153 23.904C472.593 23.904 473.745 23.412 474.609 22.428C475.473 21.42 475.905 19.908 475.905 17.892C475.905 15.876 475.473 14.376 474.609 13.392C473.745 12.408 472.593 11.916 471.153 11.916C469.737 11.916 468.597 12.408 467.733 13.392C466.869 14.376 466.437 15.876 466.437 17.892C466.437 19.908 466.869 21.42 467.733 22.428C468.597 23.412 469.737 23.904 471.153 23.904ZM483.621 35.172L482.577 31.608C483.705 31.368 484.653 31.092 485.421 30.78C486.189 30.468 486.825 30.06 487.329 29.556C487.833 29.052 488.253 28.404 488.589 27.612L489.489 25.488L489.381 27.252L481.461 8.82H486.249L491.937 23.004H490.893L496.617 8.82H501.153L492.873 28.008C492.321 29.304 491.721 30.372 491.073 31.212C490.425 32.076 489.729 32.76 488.985 33.264C488.241 33.792 487.425 34.2 486.537 34.488C485.649 34.776 484.677 35.004 483.621 35.172ZM501.301 27V21.996H506.341V27H501.301ZM65.7703 75V53.436H57.3823V49.62H78.8023V53.436H70.4143V75H65.7703ZM85.5684 75.36C83.3364 75.36 81.6684 74.748 80.5644 73.524C79.4604 72.3 78.9084 70.428 78.9084 67.908V56.82H83.4084V67.872C83.4084 69.216 83.6844 70.212 84.2364 70.86C84.7884 71.484 85.6284 71.796 86.7564 71.796C88.0284 71.796 89.0604 71.364 89.8524 70.5C90.6684 69.636 91.0764 68.496 91.0764 67.08V56.82H95.5764V75H91.1844V71.292H91.6884C91.1604 72.588 90.3564 73.596 89.2764 74.316C88.2204 75.012 86.9844 75.36 85.5684 75.36ZM99.9577 75V69.996H104.998V75H99.9577ZM126.686 75L117.722 49.62H122.546L129.458 70.428H128.018L135.47 49.62H138.926L145.838 70.428H144.506L151.742 49.62H156.278L147.242 75H143.39L136.694 55.488H137.486L130.538 75H126.686ZM169.869 75V49.62H181.137C183.921 49.62 186.045 50.292 187.509 51.636C188.973 52.98 189.705 54.828 189.705 57.18C189.705 59.508 188.973 61.356 187.509 62.724C186.045 64.092 183.921 64.776 181.137 64.776H174.513V75H169.869ZM174.513 61.104H180.597C182.133 61.104 183.285 60.768 184.053 60.096C184.821 59.4 185.205 58.428 185.205 57.18C185.205 55.932 184.821 54.972 184.053 54.3C183.285 53.604 182.133 53.256 180.597 53.256H174.513V61.104ZM193.098 75V61.464C193.098 60.696 193.074 59.916 193.026 59.124C193.002 58.332 192.942 57.564 192.846 56.82H197.202L197.706 61.788H196.986C197.226 60.588 197.622 59.592 198.174 58.8C198.75 58.008 199.446 57.42 200.262 57.036C201.078 56.652 201.966 56.46 202.926 56.46C203.358 56.46 203.706 56.484 203.97 56.532C204.234 56.556 204.498 56.616 204.762 56.712L204.726 60.672C204.27 60.48 203.874 60.36 203.538 60.312C203.226 60.264 202.83 60.24 202.35 60.24C201.318 60.24 200.442 60.456 199.722 60.888C199.026 61.32 198.498 61.92 198.138 62.688C197.802 63.456 197.634 64.332 197.634 65.316V75H193.098ZM214.111 75.36C212.527 75.36 211.135 74.988 209.935 74.244C208.735 73.476 207.799 72.384 207.127 70.968C206.455 69.552 206.119 67.86 206.119 65.892C206.119 63.924 206.455 62.244 207.127 60.852C207.799 59.436 208.735 58.356 209.935 57.612C211.135 56.844 212.527 56.46 214.111 56.46C215.647 56.46 216.991 56.844 218.143 57.612C219.319 58.356 220.099 59.364 220.483 60.636H220.087L220.483 56.82H224.803C224.731 57.564 224.659 58.32 224.587 59.088C224.539 59.856 224.515 60.612 224.515 61.356V75H220.051L220.015 71.256H220.447C220.063 72.504 219.283 73.5 218.107 74.244C216.931 74.988 215.599 75.36 214.111 75.36ZM215.371 71.904C216.787 71.904 217.927 71.412 218.791 70.428C219.655 69.42 220.087 67.908 220.087 65.892C220.087 63.876 219.655 62.376 218.791 61.392C217.927 60.408 216.787 59.916 215.371 59.916C213.955 59.916 212.815 60.408 211.951 61.392C211.087 62.376 210.655 63.876 210.655 65.892C210.655 67.908 211.075 69.42 211.915 70.428C212.779 71.412 213.931 71.904 215.371 71.904ZM237.839 83.064C236.159 83.064 234.635 82.884 233.267 82.524C231.923 82.164 230.723 81.612 229.667 80.868L230.639 77.628C231.335 78.084 232.055 78.456 232.799 78.744C233.543 79.032 234.311 79.248 235.103 79.392C235.895 79.536 236.699 79.608 237.515 79.608C239.195 79.608 240.443 79.188 241.259 78.348C242.099 77.532 242.519 76.356 242.519 74.82V70.464H242.879C242.495 71.712 241.715 72.708 240.539 73.452C239.387 74.196 238.055 74.568 236.543 74.568C234.911 74.568 233.483 74.208 232.259 73.488C231.059 72.744 230.123 71.688 229.451 70.32C228.779 68.952 228.443 67.344 228.443 65.496C228.443 63.648 228.779 62.052 229.451 60.708C230.123 59.34 231.059 58.296 232.259 57.576C233.483 56.832 234.911 56.46 236.543 56.46C238.079 56.46 239.411 56.832 240.539 57.576C241.691 58.296 242.459 59.28 242.843 60.528L242.519 60.312L242.879 56.82H247.235C247.139 57.564 247.067 58.32 247.019 59.088C246.971 59.856 246.947 60.612 246.947 61.356V74.28C246.947 77.136 246.167 79.308 244.607 80.796C243.071 82.308 240.815 83.064 237.839 83.064ZM237.767 71.112C239.207 71.112 240.347 70.632 241.187 69.672C242.051 68.688 242.483 67.296 242.483 65.496C242.483 63.696 242.051 62.316 241.187 61.356C240.347 60.396 239.207 59.916 237.767 59.916C236.303 59.916 235.139 60.396 234.275 61.356C233.411 62.316 232.979 63.696 232.979 65.496C232.979 67.296 233.411 68.688 234.275 69.672C235.139 70.632 236.303 71.112 237.767 71.112ZM251.809 75V61.356C251.809 60.612 251.785 59.856 251.737 59.088C251.689 58.32 251.617 57.564 251.521 56.82H255.877L256.237 60.42H255.805C256.309 59.172 257.077 58.2 258.109 57.504C259.165 56.808 260.413 56.46 261.853 56.46C263.293 56.46 264.481 56.808 265.417 57.504C266.377 58.176 267.049 59.232 267.433 60.672H266.857C267.361 59.376 268.189 58.356 269.341 57.612C270.493 56.844 271.813 56.46 273.301 56.46C275.341 56.46 276.865 57.06 277.873 58.26C278.881 59.46 279.385 61.332 279.385 63.876V75H274.885V64.056C274.885 62.616 274.645 61.584 274.165 60.96C273.685 60.312 272.917 59.988 271.861 59.988C270.613 59.988 269.629 60.432 268.909 61.32C268.189 62.184 267.829 63.36 267.829 64.848V75H263.329V64.056C263.329 62.616 263.089 61.584 262.609 60.96C262.129 60.312 261.361 59.988 260.305 59.988C259.057 59.988 258.073 60.432 257.353 61.32C256.657 62.184 256.309 63.36 256.309 64.848V75H251.809ZM291.208 75.36C289.624 75.36 288.232 74.988 287.032 74.244C285.832 73.476 284.896 72.384 284.224 70.968C283.552 69.552 283.216 67.86 283.216 65.892C283.216 63.924 283.552 62.244 284.224 60.852C284.896 59.436 285.832 58.356 287.032 57.612C288.232 56.844 289.624 56.46 291.208 56.46C292.744 56.46 294.088 56.844 295.24 57.612C296.416 58.356 297.196 59.364 297.58 60.636H297.184L297.58 56.82H301.9C301.828 57.564 301.756 58.32 301.684 59.088C301.636 59.856 301.612 60.612 301.612 61.356V75H297.148L297.112 71.256H297.544C297.16 72.504 296.38 73.5 295.204 74.244C294.028 74.988 292.696 75.36 291.208 75.36ZM292.468 71.904C293.884 71.904 295.024 71.412 295.888 70.428C296.752 69.42 297.184 67.908 297.184 65.892C297.184 63.876 296.752 62.376 295.888 61.392C295.024 60.408 293.884 59.916 292.468 59.916C291.052 59.916 289.912 60.408 289.048 61.392C288.184 62.376 287.752 63.876 287.752 65.892C287.752 67.908 288.172 69.42 289.012 70.428C289.876 71.412 291.028 71.904 292.468 71.904ZM314.288 75.36C312.128 75.36 310.496 74.796 309.392 73.668C308.288 72.54 307.736 70.848 307.736 68.592V60.204H304.244V56.82H307.736V52.176L312.236 51.024V56.82H317.096V60.204H312.236V68.304C312.236 69.552 312.476 70.428 312.956 70.932C313.436 71.436 314.096 71.688 314.936 71.688C315.392 71.688 315.776 71.652 316.088 71.58C316.424 71.508 316.748 71.412 317.06 71.292V74.856C316.652 75.024 316.196 75.144 315.692 75.216C315.212 75.312 314.744 75.36 314.288 75.36ZM320.153 75V56.82H324.653V75H320.153ZM319.901 53.4V49.008H324.905V53.4H319.901ZM337.892 75.36C336.02 75.36 334.376 74.976 332.96 74.208C331.568 73.44 330.488 72.348 329.72 70.932C328.952 69.492 328.568 67.788 328.568 65.82C328.568 63.852 328.952 62.172 329.72 60.78C330.512 59.388 331.604 58.32 332.996 57.576C334.388 56.832 336.02 56.46 337.892 56.46C339.092 56.46 340.256 56.652 341.384 57.036C342.536 57.396 343.472 57.924 344.192 58.62L342.824 61.752C342.176 61.152 341.444 60.708 340.628 60.42C339.836 60.108 339.056 59.952 338.288 59.952C336.68 59.952 335.42 60.456 334.508 61.464C333.62 62.472 333.176 63.936 333.176 65.856C333.176 67.776 333.62 69.252 334.508 70.284C335.42 71.316 336.68 71.832 338.288 71.832C339.032 71.832 339.8 71.688 340.592 71.4C341.408 71.112 342.152 70.668 342.824 70.068L344.192 73.164C343.448 73.86 342.5 74.4 341.348 74.784C340.22 75.168 339.068 75.36 337.892 75.36ZM357.955 75V49.62H362.023L371.347 70.608H370.231L379.555 49.62H383.587V75H379.375V56.172H380.671L372.139 75H369.367L360.835 56.172H362.167V75H357.955ZM397.668 75.36C394.62 75.36 392.232 74.52 390.504 72.84C388.776 71.16 387.912 68.856 387.912 65.928C387.912 64.032 388.284 62.376 389.028 60.96C389.772 59.544 390.804 58.44 392.124 57.648C393.468 56.856 395.028 56.46 396.804 56.46C398.556 56.46 400.02 56.832 401.196 57.576C402.372 58.32 403.26 59.364 403.86 60.708C404.484 62.052 404.796 63.624 404.796 65.424V66.612H391.548V64.236H401.592L400.98 64.74C400.98 63.06 400.62 61.776 399.9 60.888C399.204 60 398.184 59.556 396.84 59.556C395.352 59.556 394.2 60.084 393.384 61.14C392.592 62.196 392.196 63.672 392.196 65.568V66.036C392.196 68.004 392.676 69.48 393.636 70.464C394.62 71.424 396 71.904 397.776 71.904C398.808 71.904 399.768 71.772 400.656 71.508C401.568 71.22 402.432 70.764 403.248 70.14L404.58 73.164C403.716 73.86 402.684 74.4 401.484 74.784C400.284 75.168 399.012 75.36 397.668 75.36ZM417.39 75.36C414.342 75.36 411.954 74.52 410.226 72.84C408.498 71.16 407.634 68.856 407.634 65.928C407.634 64.032 408.006 62.376 408.75 60.96C409.494 59.544 410.526 58.44 411.846 57.648C413.19 56.856 414.75 56.46 416.526 56.46C418.278 56.46 419.742 56.832 420.918 57.576C422.094 58.32 422.982 59.364 423.582 60.708C424.206 62.052 424.518 63.624 424.518 65.424V66.612H411.27V64.236H421.314L420.702 64.74C420.702 63.06 420.342 61.776 419.622 60.888C418.926 60 417.906 59.556 416.562 59.556C415.074 59.556 413.922 60.084 413.106 61.14C412.314 62.196 411.918 63.672 411.918 65.568V66.036C411.918 68.004 412.398 69.48 413.358 70.464C414.342 71.424 415.722 71.904 417.498 71.904C418.53 71.904 419.49 71.772 420.378 71.508C421.29 71.22 422.154 70.764 422.97 70.14L424.302 73.164C423.438 73.86 422.406 74.4 421.206 74.784C420.006 75.168 418.734 75.36 417.39 75.36ZM436.035 75.36C433.875 75.36 432.243 74.796 431.139 73.668C430.035 72.54 429.483 70.848 429.483 68.592V60.204H425.991V56.82H429.483V52.176L433.983 51.024V56.82H438.843V60.204H433.983V68.304C433.983 69.552 434.223 70.428 434.703 70.932C435.183 71.436 435.843 71.688 436.683 71.688C437.139 71.688 437.523 71.652 437.835 71.58C438.171 71.508 438.495 71.412 438.807 71.292V74.856C438.399 75.024 437.943 75.144 437.439 75.216C436.959 75.312 436.491 75.36 436.035 75.36ZM442.028 75V69.996H447.068V75H442.028Z" fill="#1C1B1F"/>
</svg>
