<svg width="1200" height="630" viewBox="0 0 1200 630" fill="none" xmlns="http://www.w3.org/2000/svg">
<g clip-path="url(#clip0_215_1348)">
<rect width="1200" height="630" fill="white"/>
<g filter="url(#filter0_f_215_1348)">
<ellipse cx="103" cy="346.5" rx="282" ry="400.5" fill="#F7F1E0" fill-opacity="0.6"/>
</g>
<g filter="url(#filter1_f_215_1348)">
<ellipse cx="600" cy="347" rx="644" ry="561" fill="url(#paint0_radial_215_1348)" fill-opacity="0.6"/>
</g>
<circle cx="527.5" cy="346.5" r="343.5" fill="url(#paint1_radial_215_1348)"/>
<circle cx="1308.5" cy="346.5" r="343.5" fill="url(#paint2_radial_215_1348)"/>
<g filter="url(#filter2_f_215_1348)">
<circle cx="1236" cy="347" r="334" fill="url(#paint3_radial_215_1348)"/>
</g>
<g filter="url(#filter3_f_215_1348)">
<circle cx="765" cy="347" r="334" fill="url(#paint4_radial_215_1348)"/>
</g>
<g filter="url(#filter4_f_215_1348)">
<circle cx="568" cy="151" r="334" fill="url(#paint5_radial_215_1348)"/>
</g>
<g filter="url(#filter5_f_215_1348)">
<circle cx="298" cy="151" r="334" fill="url(#paint6_radial_215_1348)"/>
</g>
<circle cx="209.56" cy="346.561" r="274.561" fill="url(#paint7_radial_215_1348)"/>
<g filter="url(#filter6_f_215_1348)">
<circle cx="1225.08" cy="346.774" r="259.774" fill="url(#paint8_radial_215_1348)"/>
</g>
<g filter="url(#filter7_f_215_1348)">
<circle cx="382.121" cy="201.121" r="320.121" fill="#155EEF" fill-opacity="0.06"/>
</g>
<path d="M942.758 340.066C938.233 340.066 934.815 338.885 932.502 336.522C930.19 334.16 929.034 330.616 929.034 325.89V308.32H921.719V301.232H929.034V291.505L938.459 289.092V301.232H948.639V308.32H938.459V325.287C938.459 327.901 938.962 329.736 939.968 330.791C940.973 331.847 942.355 332.375 944.115 332.375C945.07 332.375 945.874 332.3 946.528 332.149C947.232 331.998 947.91 331.797 948.564 331.546V339.011C947.709 339.363 946.754 339.614 945.698 339.765C944.693 339.966 943.713 340.066 942.758 340.066Z" fill="#155EEF"/>
<path d="M903.707 340.067C897.323 340.067 892.321 338.307 888.701 334.788C885.082 331.269 883.272 326.443 883.272 320.31C883.272 316.339 884.051 312.87 885.61 309.904C887.168 306.938 889.33 304.626 892.095 302.967C894.91 301.308 898.177 300.479 901.897 300.479C905.567 300.479 908.634 301.258 911.097 302.816C913.56 304.375 915.42 306.561 916.677 309.376C917.984 312.192 918.638 315.484 918.638 319.255V321.743H890.888V316.766H911.926L910.644 317.822C910.644 314.303 909.89 311.614 908.382 309.753C906.924 307.893 904.788 306.963 901.973 306.963C898.856 306.963 896.443 308.069 894.734 310.281C893.075 312.493 892.245 315.585 892.245 319.556V320.537C892.245 324.659 893.251 327.75 895.262 329.812C897.323 331.822 900.213 332.828 903.933 332.828C906.095 332.828 908.106 332.551 909.966 331.998C911.876 331.395 913.686 330.44 915.395 329.133L918.185 335.467C916.375 336.925 914.214 338.056 911.7 338.86C909.187 339.665 906.522 340.067 903.707 340.067Z" fill="#155EEF"/>
<path d="M862.396 340.067C856.011 340.067 851.009 338.307 847.39 334.788C843.77 331.269 841.96 326.443 841.96 320.31C841.96 316.339 842.74 312.87 844.298 309.904C845.856 306.938 848.018 304.626 850.783 302.967C853.598 301.308 856.866 300.479 860.586 300.479C864.256 300.479 867.322 301.258 869.785 302.816C872.249 304.375 874.109 306.561 875.365 309.376C876.672 312.192 877.326 315.484 877.326 319.255V321.743H849.576V316.766H870.615L869.333 317.822C869.333 314.303 868.579 311.614 867.071 309.753C865.613 307.893 863.476 306.963 860.661 306.963C857.544 306.963 855.131 308.069 853.422 310.281C851.763 312.493 850.934 315.585 850.934 319.556V320.537C850.934 324.659 851.939 327.75 853.95 329.812C856.011 331.822 858.902 332.828 862.622 332.828C864.783 332.828 866.794 332.551 868.654 331.998C870.565 331.395 872.374 330.44 874.084 329.133L876.874 335.467C875.064 336.925 872.902 338.056 870.389 338.86C867.875 339.665 865.211 340.067 862.396 340.067Z" fill="#155EEF"/>
<path d="M779.212 339.313V286.151H787.733L807.264 330.113H804.926L824.456 286.151H832.902V339.313H824.079V299.875H826.794L808.922 339.313H803.116L785.245 299.875H788.035V339.313H779.212Z" fill="#155EEF"/>
<path d="M737.188 340.067C733.267 340.067 729.824 339.262 726.858 337.654C723.942 336.045 721.68 333.758 720.071 330.792C718.463 327.776 717.658 324.206 717.658 320.084C717.658 315.962 718.463 312.443 720.071 309.527C721.73 306.612 724.017 304.375 726.933 302.816C729.849 301.258 733.267 300.479 737.188 300.479C739.702 300.479 742.14 300.881 744.503 301.685C746.916 302.439 748.876 303.545 750.385 305.003L747.519 311.563C746.162 310.306 744.628 309.376 742.919 308.773C741.26 308.12 739.627 307.793 738.018 307.793C734.65 307.793 732.011 308.849 730.1 310.96C728.24 313.071 727.31 316.138 727.31 320.16C727.31 324.181 728.24 327.273 730.1 329.435C732.011 331.596 734.65 332.677 738.018 332.677C739.576 332.677 741.185 332.375 742.844 331.772C744.553 331.169 746.112 330.239 747.519 328.982L750.385 335.467C748.826 336.925 746.84 338.056 744.427 338.86C742.065 339.665 739.652 340.067 737.188 340.067Z" fill="#1C1B1F"/>
<path d="M700.032 339.312V301.232H709.458V339.312H700.032ZM699.504 294.069V284.869H709.985V294.069H699.504Z" fill="#1C1B1F"/>
<path d="M687.746 340.066C683.222 340.066 679.803 338.885 677.491 336.522C675.178 334.16 674.022 330.616 674.022 325.89V308.32H666.708V301.232H674.022V291.505L683.448 289.092V301.232H693.628V308.32H683.448V325.287C683.448 327.901 683.95 329.736 684.956 330.791C685.961 331.847 687.344 332.375 689.103 332.375C690.058 332.375 690.863 332.3 691.516 332.149C692.22 331.998 692.899 331.797 693.552 331.546V339.011C692.698 339.363 691.742 339.614 690.687 339.765C689.681 339.966 688.701 340.066 687.746 340.066Z" fill="#1C1B1F"/>
<path d="M639.404 340.067C636.086 340.067 633.171 339.288 630.657 337.729C628.144 336.121 626.183 333.833 624.775 330.867C623.368 327.901 622.664 324.357 622.664 320.235C622.664 316.113 623.368 312.594 624.775 309.678C626.183 306.712 628.144 304.45 630.657 302.892C633.171 301.283 636.086 300.479 639.404 300.479C642.622 300.479 645.437 301.283 647.85 302.892C650.313 304.45 651.947 306.561 652.751 309.226H651.922L652.751 301.233H661.8C661.649 302.791 661.498 304.375 661.347 305.983C661.247 307.592 661.197 309.175 661.197 310.734V339.313H651.846L651.771 331.47H652.676C651.871 334.085 650.238 336.171 647.774 337.729C645.311 339.288 642.521 340.067 639.404 340.067ZM642.043 332.828C645.009 332.828 647.397 331.797 649.207 329.736C651.017 327.625 651.922 324.458 651.922 320.235C651.922 316.012 651.017 312.87 649.207 310.809C647.397 308.748 645.009 307.718 642.043 307.718C639.078 307.718 636.69 308.748 634.88 310.809C633.07 312.87 632.165 316.012 632.165 320.235C632.165 324.458 633.045 327.625 634.804 329.736C636.614 331.797 639.027 332.828 642.043 332.828Z" fill="#1C1B1F"/>
<path d="M556.876 339.313V310.734C556.876 309.175 556.825 307.592 556.725 305.983C556.624 304.375 556.474 302.791 556.272 301.233H565.397L566.151 308.773H565.246C566.301 306.159 567.91 304.123 570.072 302.665C572.284 301.207 574.898 300.479 577.914 300.479C580.93 300.479 583.419 301.207 585.379 302.665C587.39 304.073 588.798 306.285 589.602 309.301H588.396C589.451 306.586 591.186 304.45 593.599 302.892C596.012 301.283 598.776 300.479 601.893 300.479C606.166 300.479 609.358 301.735 611.47 304.249C613.581 306.762 614.637 310.683 614.637 316.012V339.313H605.211V316.389C605.211 313.373 604.708 311.211 603.703 309.904C602.698 308.547 601.089 307.868 598.877 307.868C596.263 307.868 594.202 308.798 592.694 310.658C591.186 312.468 590.431 314.931 590.431 318.048V339.313H581.006V316.389C581.006 313.373 580.503 311.211 579.498 309.904C578.492 308.547 576.884 307.868 574.672 307.868C572.058 307.868 569.996 308.798 568.488 310.658C567.03 312.468 566.301 314.931 566.301 318.048V339.313H556.876Z" fill="#1C1B1F"/>
<path d="M527.616 356.204C524.097 356.204 520.904 355.827 518.039 355.073C515.224 354.319 512.71 353.162 510.498 351.604L512.534 344.817C513.992 345.773 515.5 346.552 517.059 347.155C518.617 347.758 520.226 348.211 521.885 348.512C523.544 348.814 525.228 348.965 526.937 348.965C530.456 348.965 533.07 348.085 534.779 346.326C536.539 344.616 537.418 342.153 537.418 338.936V329.812H538.172C537.368 332.426 535.734 334.512 533.271 336.07C530.858 337.629 528.068 338.408 524.901 338.408C521.483 338.408 518.491 337.654 515.928 336.146C513.414 334.587 511.454 332.375 510.046 329.51C508.638 326.644 507.935 323.276 507.935 319.405C507.935 315.535 508.638 312.192 510.046 309.376C511.454 306.511 513.414 304.324 515.928 302.816C518.491 301.258 521.483 300.479 524.901 300.479C528.118 300.479 530.908 301.258 533.271 302.816C535.684 304.324 537.293 306.385 538.097 308.999L537.418 308.547L538.172 301.233H547.297C547.096 302.791 546.945 304.375 546.844 305.983C546.744 307.592 546.693 309.175 546.693 310.734V337.805C546.693 343.787 545.06 348.336 541.792 351.453C538.575 354.62 533.849 356.204 527.616 356.204ZM527.465 331.169C530.481 331.169 532.869 330.163 534.628 328.153C536.438 326.092 537.343 323.176 537.343 319.405C537.343 315.635 536.438 312.745 534.628 310.734C532.869 308.723 530.481 307.718 527.465 307.718C524.398 307.718 521.96 308.723 520.15 310.734C518.341 312.745 517.436 315.635 517.436 319.405C517.436 323.176 518.341 326.092 520.15 328.153C521.96 330.163 524.398 331.169 527.465 331.169Z" fill="#1C1B1F"/>
<path d="M477.914 340.067C474.596 340.067 471.68 339.288 469.167 337.729C466.653 336.121 464.693 333.833 463.285 330.867C461.878 327.901 461.174 324.357 461.174 320.235C461.174 316.113 461.878 312.594 463.285 309.678C464.693 306.712 466.653 304.45 469.167 302.892C471.68 301.283 474.596 300.479 477.914 300.479C481.131 300.479 483.947 301.283 486.36 302.892C488.823 304.45 490.457 306.561 491.261 309.226H490.431L491.261 301.233H500.31C500.159 302.791 500.008 304.375 499.857 305.983C499.757 307.592 499.706 309.175 499.706 310.734V339.313H490.356L490.281 331.47H491.186C490.381 334.085 488.747 336.171 486.284 337.729C483.821 339.288 481.031 340.067 477.914 340.067ZM480.553 332.828C483.519 332.828 485.907 331.797 487.717 329.736C489.527 327.625 490.431 324.458 490.431 320.235C490.431 316.012 489.527 312.87 487.717 310.809C485.907 308.748 483.519 307.718 480.553 307.718C477.587 307.718 475.199 308.748 473.39 310.809C471.58 312.87 470.675 316.012 470.675 320.235C470.675 324.458 471.555 327.625 473.314 329.736C475.124 331.797 477.537 332.828 480.553 332.828Z" fill="#1C1B1F"/>
<path d="M433.897 339.313V310.96C433.897 309.351 433.847 307.718 433.746 306.059C433.696 304.4 433.57 302.791 433.369 301.233H442.493L443.549 311.639H442.041C442.544 309.125 443.373 307.039 444.529 305.38C445.736 303.721 447.194 302.489 448.903 301.685C450.612 300.881 452.472 300.479 454.483 300.479C455.388 300.479 456.117 300.529 456.67 300.629C457.223 300.68 457.776 300.805 458.329 301.006L458.253 309.301C457.298 308.899 456.469 308.648 455.765 308.547C455.111 308.446 454.282 308.396 453.276 308.396C451.115 308.396 449.28 308.849 447.772 309.753C446.314 310.658 445.208 311.915 444.454 313.524C443.75 315.132 443.398 316.967 443.398 319.028V339.313H433.897Z" fill="#1C1B1F"/>
<path d="M385.244 339.313V286.151H408.846C414.678 286.151 419.127 287.559 422.193 290.374C425.26 293.189 426.793 297.06 426.793 301.987C426.793 306.863 425.26 310.734 422.193 313.599C419.127 316.465 414.678 317.897 408.846 317.897H394.972V339.313H385.244ZM394.972 310.206H407.715C410.933 310.206 413.346 309.502 414.954 308.095C416.563 306.637 417.367 304.601 417.367 301.987C417.367 299.373 416.563 297.362 414.954 295.954C413.346 294.496 410.933 293.767 407.715 293.767H394.972V310.206Z" fill="#1C1B1F"/>
<path d="M289.756 379H252.361V327.554H261.463V369.744H280.654V320.989H252.361V252H310.043C336.252 252 357.636 274.171 357.636 301.186C357.636 328.415 336.252 350.371 310.043 350.371H294.471V340.685H310.043C330.989 340.685 348.315 322.711 348.315 300.97C348.315 279.23 330.989 261.256 310.043 261.256H261.682V311.625H280.654V277.508H308.508C320.132 277.508 329.453 287.194 329.453 299.248C329.453 311.303 319.913 320.989 308.508 320.989H289.756V379ZM289.756 311.518H308.617C315.088 311.518 320.461 305.814 320.461 299.248C320.461 292.468 315.088 286.979 308.617 286.979H289.756V311.518Z" fill="#155EEF"/>
<path d="M802.254 127.383C802.874 126.85 803.79 126.883 804.37 127.435L804.482 127.553L814.109 138.761C814.678 139.423 814.602 140.42 813.94 140.989C813.278 141.557 812.281 141.482 811.712 140.82L802.084 129.611L801.985 129.483C801.528 128.826 801.633 127.916 802.254 127.383Z" fill="#155EEF"/>
<path d="M882.237 93.514C883.055 93.5289 883.717 94.1626 883.783 94.9606L883.788 95.1227L883.522 109.895C883.506 110.768 882.786 111.462 881.914 111.446C881.041 111.431 880.347 110.711 880.362 109.839L880.628 95.0649L880.64 94.9037C880.735 94.1086 881.419 93.4993 882.237 93.514Z" fill="#155EEF"/>
<path d="M950.053 96.8091C950.781 97.1821 951.097 98.0422 950.806 98.7882L950.739 98.9358L944.005 112.088C943.608 112.864 942.655 113.171 941.879 112.773C941.102 112.376 940.795 111.424 941.192 110.647L947.926 97.4949L948.007 97.3551C948.443 96.6829 949.325 96.4363 950.053 96.8091Z" fill="#155EEF"/>
<path d="M889.343 169.21C890.161 169.225 890.823 169.859 890.89 170.657L890.894 170.819L890.629 185.592C890.613 186.464 889.893 187.158 889.02 187.143C888.148 187.127 887.453 186.407 887.469 185.535L887.735 170.761L887.746 170.6C887.842 169.805 888.525 169.196 889.343 169.21Z" fill="#155EEF"/>
<path d="M821.657 174.756C822.358 174.236 823.347 174.383 823.867 175.084C824.387 175.784 824.24 176.774 823.539 177.294C818.59 180.966 814.196 184.04 810.01 188.335L809.892 188.445C809.278 188.959 808.362 188.934 807.776 188.363C807.151 187.754 807.137 186.753 807.746 186.128L808.575 185.296C812.734 181.2 817.104 178.134 821.657 174.756Z" fill="#155EEF"/>
<path d="M853.094 195.061C853.01 195.929 852.237 196.564 851.369 196.48C850.5 196.395 849.864 195.623 849.949 194.755L853.094 195.061ZM851.502 178.768C851.587 177.899 852.36 177.263 853.228 177.347C854.097 177.431 854.733 178.204 854.648 179.072L853.094 195.061L849.949 194.755L851.502 178.768Z" fill="#155EEF"/>
<path d="M919.607 162.181C920.134 161.555 921.043 161.441 921.705 161.892L921.834 161.989L931.953 170.508C932.62 171.07 932.705 172.067 932.143 172.734C931.581 173.402 930.584 173.487 929.917 172.925L919.799 164.407L919.681 164.296C919.123 163.721 919.081 162.807 919.607 162.181Z" fill="#155EEF"/>
<path d="M937.388 148.438C937.782 147.66 938.732 147.348 939.51 147.743C944.486 150.262 949.457 152.781 954.436 155.284C955.215 155.676 955.529 156.626 955.138 157.405C954.745 158.185 953.795 158.499 953.015 158.107C948.032 155.601 943.057 153.079 938.083 150.561C937.305 150.167 936.994 149.217 937.388 148.438Z" fill="#155EEF"/>
<path d="M927.016 88.7486C927.28 87.9167 928.168 87.4557 929 87.719C929.832 87.9824 930.292 88.8704 930.029 89.7024C928.282 95.2222 926.081 100.174 923.74 105.405C923.384 106.201 922.449 106.558 921.652 106.201C920.856 105.845 920.499 104.91 920.855 104.114C923.203 98.8684 925.331 94.0723 927.016 88.7486Z" fill="#155EEF"/>
<path d="M837.84 107.122C838.685 106.903 839.547 107.41 839.766 108.255L843.244 121.676C843.463 122.52 842.957 123.383 842.112 123.602C841.267 123.821 840.405 123.313 840.186 122.468L836.707 109.048C836.488 108.203 836.995 107.341 837.84 107.122Z" fill="#155EEF"/>
<path d="M785.691 157.957L807.118 154.272L807.278 154.253C808.077 154.198 808.805 154.756 808.943 155.562C809.082 156.368 808.583 157.137 807.811 157.352L807.653 157.387L786.227 161.072L786.066 161.091C785.267 161.147 784.54 160.589 784.401 159.782C784.263 158.976 784.762 158.207 785.533 157.993L785.691 157.957Z" fill="#155EEF"/>
<path d="M951.374 121.192L953.114 120.876C955.999 120.319 958.826 119.626 961.701 118.899L965.181 118.016L965.339 117.985C966.132 117.868 966.899 118.369 967.099 119.163C967.312 120.009 966.799 120.868 965.952 121.081C961.623 122.171 957.298 123.329 952.808 124.148L951.907 124.308L951.747 124.327C950.948 124.382 950.221 123.823 950.083 123.016C949.945 122.21 950.445 121.442 951.216 121.228L951.374 121.192Z" fill="#155EEF"/>
<path d="M919.522 144.106C919.437 143.791 919.467 143.462 919.611 143.119C919.786 142.768 919.959 142.468 920.128 142.22L920.884 142.016C921.419 141.872 921.894 141.879 922.308 142.038C922.745 142.156 923.04 142.499 923.193 143.066C923.244 143.255 923.236 143.476 923.17 143.731C923.095 143.954 922.972 144.189 922.803 144.438C922.656 144.646 922.47 144.831 922.243 144.994C922.017 145.156 921.789 145.251 921.56 145.279C921.229 145.301 920.831 145.205 920.369 144.992C919.906 144.779 919.624 144.484 919.522 144.106ZM915.283 128.378C915.19 128.032 915.109 127.733 915.041 127.481C914.997 127.189 914.99 126.853 915.023 126.472L910.67 110.319C910.644 110.225 910.682 110.114 910.782 109.985C910.906 109.817 911.034 109.664 911.166 109.527C911.329 109.382 911.481 109.256 911.622 109.151C911.794 109.037 911.911 108.972 911.974 108.955C912.509 108.811 912.954 108.893 913.307 109.203C913.693 109.505 914.019 109.839 914.287 110.206C914.355 110.458 914.454 110.887 914.583 111.494C914.736 112.061 914.902 112.675 915.08 113.336C915.249 113.966 915.415 114.58 915.576 115.178C915.769 115.768 915.895 116.173 915.954 116.393C915.997 116.551 916.09 116.897 916.234 117.432C916.402 117.928 916.586 118.486 916.787 119.107C916.98 119.697 917.148 120.259 917.292 120.795C917.468 121.321 917.573 121.648 917.607 121.774C917.649 121.931 917.723 122.266 917.827 122.778C917.963 123.282 918.096 123.837 918.225 124.444C918.378 125.011 918.515 125.582 918.636 126.157C918.758 126.732 918.852 127.146 918.92 127.398C919.01 127.982 918.988 128.528 918.855 129.037C918.722 129.545 918.325 129.889 917.664 130.067C916.971 130.254 916.448 130.192 916.094 129.882C915.74 129.572 915.47 129.071 915.283 128.378Z" fill="#155EEF"/>
<path d="M915.301 132.579C915.391 133.162 915.431 133.624 915.421 133.965C915.443 134.297 915.393 134.614 915.272 134.917C915.151 135.22 914.956 135.559 914.686 135.936C914.407 136.281 914.037 136.786 913.574 137.451C913.103 138.085 912.533 138.914 911.864 139.939C911.194 140.964 910.399 142.276 909.479 143.874C909.103 144.483 908.715 145.111 908.315 145.759C907.916 146.407 907.472 147.016 906.984 147.587C906.519 148.117 906.006 148.593 905.444 149.015C904.882 149.436 904.255 149.741 903.562 149.927C902.208 150.292 901.093 150.103 900.217 149.359C899.341 148.616 898.742 147.646 898.42 146.45C898.208 145.662 898.045 144.997 897.932 144.453C897.851 143.901 897.79 143.174 897.75 142.273C897.319 142.052 896.948 141.865 896.636 141.712C896.317 141.528 896.102 141.231 895.991 140.822C895.89 140.444 895.9 140.171 896.024 140.003C896.179 139.826 896.362 139.692 896.574 139.601C896.809 139.47 897.028 139.344 897.232 139.221C897.435 139.099 897.559 138.931 897.602 138.716C897.614 138.51 897.631 138.134 897.653 137.588C897.706 137.033 897.755 136.463 897.8 135.877C897.836 135.259 897.869 134.693 897.899 134.178C897.952 133.623 897.985 133.243 897.997 133.037C898.073 132.442 898.165 131.843 898.273 131.24C898.403 130.597 898.582 130.009 898.81 129.474C899.069 128.932 899.396 128.455 899.792 128.044C900.22 127.625 900.764 127.327 901.425 127.148C901.803 127.047 902.306 127.097 902.935 127.299C903.595 127.492 904.245 127.773 904.885 128.141C905.516 128.478 906.077 128.867 906.567 129.309C907.058 129.751 907.354 130.161 907.456 130.539C907.583 131.011 907.592 131.481 907.482 131.95C907.363 132.387 907.177 132.826 906.924 133.266C906.694 133.665 906.428 134.058 906.127 134.443C905.825 134.828 905.551 135.189 905.304 135.526C905.273 135.534 905.218 135.583 905.141 135.671C905.063 135.76 904.997 135.828 904.943 135.877C904.92 135.917 904.862 136.017 904.77 136.176C904.701 136.296 904.621 136.436 904.529 136.596C904.437 136.756 904.345 136.916 904.253 137.076C904.192 137.227 904.15 137.323 904.127 137.363C904.058 137.483 903.912 137.691 903.688 137.988C903.487 138.245 903.263 138.542 903.016 138.878C902.761 139.184 902.521 139.485 902.297 139.781C902.096 140.038 901.957 140.211 901.879 140.299L901.792 140.728C901.763 140.871 901.776 141.171 901.832 141.629C901.911 142.047 901.991 142.532 902.072 143.084C902.154 143.636 902.239 144.204 902.329 144.788C902.442 145.332 902.545 145.777 902.638 146.123C902.647 146.155 902.671 146.182 902.711 146.205C902.791 146.251 902.846 146.27 902.878 146.261C903.13 146.193 903.336 146.02 903.497 145.74C903.658 145.46 903.852 145.239 904.078 145.077L909.752 136.05L910.886 132.553C910.984 132.29 911.22 131.973 911.593 131.602C911.989 131.192 912.423 130.923 912.895 130.795C913.359 130.637 913.806 130.668 914.238 130.889C914.7 131.102 915.055 131.666 915.301 132.579ZM903.917 131.695C904.041 131.527 904.053 131.321 903.953 131.077C903.854 130.834 903.7 130.639 903.492 130.492C903.315 130.337 903.112 130.274 902.883 130.302C902.646 130.298 902.471 130.464 902.358 130.798C902.298 130.949 902.192 131.248 902.042 131.694C901.924 132.131 901.794 132.588 901.652 133.065C901.533 133.502 901.434 133.884 901.353 134.21C901.272 134.536 901.27 134.654 901.347 134.566L903.917 131.695Z" fill="#155EEF"/>
<path d="M894.283 138.243C894.372 138.826 894.413 139.289 894.403 139.629C894.425 139.961 894.375 140.278 894.254 140.581C894.133 140.884 893.938 141.223 893.668 141.6C893.389 141.945 893.019 142.451 892.556 143.116C892.085 143.749 891.515 144.578 890.845 145.603C890.176 146.628 889.381 147.94 888.461 149.539C888.085 150.147 887.697 150.775 887.297 151.423C886.898 152.071 886.454 152.68 885.966 153.251C885.501 153.781 884.988 154.257 884.426 154.679C883.864 155.101 883.237 155.405 882.544 155.591C881.19 155.956 880.075 155.767 879.199 155.024C878.323 154.28 877.724 153.31 877.402 152.114C877.19 151.326 877.027 150.661 876.914 150.117C876.833 149.565 876.772 148.838 876.732 147.937C876.301 147.716 875.93 147.529 875.618 147.376C875.299 147.192 875.084 146.895 874.973 146.486C874.871 146.108 874.882 145.835 875.006 145.667C875.161 145.49 875.344 145.356 875.556 145.265C875.791 145.134 876.01 145.008 876.214 144.885C876.417 144.763 876.541 144.595 876.584 144.38C876.596 144.174 876.613 143.798 876.635 143.252C876.688 142.697 876.737 142.127 876.782 141.541C876.818 140.923 876.851 140.357 876.881 139.842C876.934 139.287 876.967 138.907 876.979 138.701C877.055 138.106 877.147 137.508 877.255 136.904C877.385 136.261 877.564 135.673 877.792 135.138C878.051 134.596 878.378 134.119 878.774 133.708C879.202 133.289 879.746 132.991 880.407 132.812C880.785 132.711 881.288 132.761 881.917 132.963C882.577 133.156 883.227 133.437 883.867 133.805C884.498 134.142 885.058 134.531 885.549 134.973C886.04 135.415 886.336 135.825 886.438 136.203C886.565 136.675 886.574 137.146 886.463 137.614C886.345 138.052 886.159 138.49 885.906 138.93C885.676 139.329 885.41 139.722 885.109 140.107C884.807 140.492 884.533 140.853 884.286 141.19C884.255 141.199 884.2 141.247 884.123 141.335C884.045 141.424 883.979 141.492 883.925 141.541C883.902 141.581 883.844 141.681 883.752 141.841C883.683 141.96 883.603 142.1 883.511 142.26C883.419 142.42 883.327 142.58 883.235 142.74C883.174 142.891 883.132 142.987 883.109 143.027C883.04 143.147 882.894 143.355 882.67 143.652C882.469 143.909 882.245 144.206 881.998 144.542C881.742 144.848 881.503 145.149 881.279 145.445C881.078 145.702 880.939 145.875 880.861 145.963L880.774 146.392C880.745 146.535 880.758 146.835 880.814 147.293C880.893 147.711 880.973 148.196 881.054 148.748C881.136 149.301 881.221 149.869 881.311 150.452C881.424 150.996 881.527 151.441 881.62 151.787C881.629 151.819 881.653 151.846 881.693 151.869C881.773 151.915 881.828 151.934 881.86 151.925C882.112 151.858 882.318 151.684 882.479 151.404C882.64 151.124 882.834 150.903 883.06 150.741L888.734 141.714L889.868 138.217C889.966 137.954 890.202 137.637 890.575 137.266C890.971 136.856 891.405 136.587 891.877 136.459C892.341 136.301 892.788 136.332 893.22 136.553C893.682 136.767 894.037 137.33 894.283 138.243ZM882.899 137.359C883.023 137.191 883.035 136.985 882.935 136.741C882.836 136.498 882.682 136.303 882.474 136.156C882.297 136.001 882.094 135.938 881.865 135.966C881.628 135.962 881.453 136.128 881.34 136.462C881.28 136.613 881.174 136.912 881.024 137.358C880.906 137.795 880.776 138.252 880.634 138.729C880.515 139.167 880.416 139.548 880.335 139.874C880.253 140.2 880.252 140.318 880.329 140.23L882.899 137.359Z" fill="#155EEF"/>
<path d="M862.872 158.917C862.503 157.8 861.986 156.318 861.319 154.472C860.676 152.585 859.983 150.644 859.243 148.648C858.534 146.644 857.839 144.754 857.158 142.978C856.477 141.203 855.938 139.829 855.54 138.855C855.43 138.446 855.547 138.127 855.89 137.899C856.234 137.672 856.579 137.511 856.926 137.418C857.367 137.299 857.857 137.302 858.397 137.426C858.969 137.542 859.377 137.804 859.622 138.211C859.656 138.337 859.735 138.569 859.86 138.907C859.976 139.213 860.081 139.539 860.175 139.886C860.299 140.224 860.424 140.561 860.549 140.899C860.665 141.206 860.741 141.422 860.775 141.548C860.825 141.737 860.864 141.878 860.889 141.973C860.915 142.067 860.94 142.162 860.965 142.256C860.982 142.319 861.019 142.394 861.076 142.48C861.133 142.566 861.223 142.71 861.345 142.914C861.391 142.834 861.433 142.738 861.471 142.627C861.54 142.507 861.586 142.427 861.609 142.387C861.917 141.527 862.236 140.766 862.564 140.103C862.883 139.409 863.231 138.758 863.608 138.15C863.976 137.51 864.387 136.842 864.841 136.146C865.318 135.409 865.868 134.569 866.492 133.624C866.638 133.416 866.75 133.267 866.828 133.179C866.897 133.059 866.958 132.975 867.013 132.926C867.09 132.838 867.176 132.781 867.271 132.755C867.357 132.698 867.478 132.649 867.636 132.606C868.171 132.462 868.757 132.507 869.394 132.74C870.055 132.934 870.469 133.346 870.639 133.975C870.699 134.196 870.683 134.453 870.594 134.747C870.496 135.01 870.366 135.282 870.205 135.561C870.036 135.81 869.846 136.047 869.637 136.272C869.459 136.489 869.284 136.654 869.112 136.768C868.489 137.713 867.847 138.781 867.189 139.971C866.522 141.13 865.939 142.351 865.44 143.634C864.942 144.917 864.597 146.209 864.408 147.509C864.218 148.81 864.28 150.043 864.594 151.208C864.882 152.279 865.245 153.312 865.683 154.309C866.12 155.306 866.483 156.339 866.772 157.41L867.217 159.063C867.033 159.383 866.868 159.647 866.721 159.855C866.575 160.063 866.328 160.214 865.982 160.308C865.447 160.452 864.868 160.371 864.245 160.066C863.614 159.73 863.156 159.347 862.872 158.917Z" fill="#155EEF"/>
<path d="M838.476 155.056C838.4 154.772 838.368 154.528 838.38 154.322C838.423 154.107 838.471 153.909 838.523 153.726C838.598 153.503 838.646 153.304 838.667 153.13C838.71 152.915 838.698 152.682 838.63 152.43C838.375 151.486 838.062 150.574 837.69 149.695C837.31 148.784 836.913 147.878 836.501 146.975C836.121 146.065 835.745 145.17 835.373 144.291C834.992 143.38 834.675 142.452 834.42 141.508C834.242 140.846 834.229 140.36 834.381 140.049C834.565 139.729 835.004 139.476 835.697 139.289C836.232 139.145 836.711 139.168 837.134 139.358C837.579 139.508 838.03 139.741 838.487 140.057L838.723 139.993C838.91 139.808 839.255 139.462 839.76 138.954C840.265 138.446 840.797 137.915 841.357 137.359C841.948 136.794 842.5 136.274 843.013 135.798C843.55 135.282 843.923 134.911 844.132 134.685C844.591 134.258 845.047 133.882 845.5 133.557C845.953 133.232 846.478 132.989 847.077 132.828C847.391 132.743 847.64 132.727 847.823 132.779C848.006 132.831 848.153 133.062 848.263 133.471L848.288 133.565C848.332 134.229 848.252 134.808 848.047 135.302C847.834 135.765 847.545 136.197 847.181 136.6C846.848 136.993 846.475 137.364 846.062 137.712C845.672 138.019 845.307 138.354 844.965 138.717C844.199 139.632 843.54 140.384 842.989 140.972C842.47 141.551 842.008 142.03 841.603 142.409C841.23 142.78 840.928 143.098 840.695 143.363C840.486 143.588 840.328 143.816 840.221 144.048C840.247 144.142 840.282 144.335 840.327 144.627C840.395 144.879 840.437 145.037 840.454 145.1C840.709 146.044 840.979 146.985 841.265 147.921C841.551 148.857 841.986 149.719 842.57 150.507L852.175 142.346C852.37 142.192 852.514 142.103 852.609 142.077C852.726 142.012 852.895 141.95 853.116 141.89C853.242 141.856 853.459 141.848 853.768 141.866C854.077 141.884 854.252 141.972 854.295 142.13C854.49 142.854 854.412 143.567 854.061 144.27C853.741 144.964 853.299 145.64 852.733 146.299C852.168 146.958 851.554 147.563 850.892 148.113C850.229 148.663 849.653 149.156 849.163 149.592C849.054 149.689 848.925 149.774 848.776 149.848C848.627 149.922 848.538 150.031 848.509 150.174L844.249 154.108C844.117 154.245 844.048 154.364 844.042 154.467C844.059 154.53 844.089 154.641 844.132 154.798C844.149 154.861 844.17 154.94 844.195 155.034C844.252 155.12 844.285 155.179 844.293 155.21L847.373 162.689C847.671 163.419 847.643 164.068 847.29 164.636C846.968 165.196 846.476 165.565 845.815 165.743C845.689 165.777 845.527 165.804 845.33 165.823C845.124 165.811 844.918 165.799 844.712 165.787C844.498 165.744 844.295 165.68 844.103 165.596C843.935 165.473 843.81 165.321 843.727 165.141L840.039 156.154C840.005 156.028 839.912 155.935 839.761 155.875C839.609 155.814 839.442 155.758 839.259 155.706C839.108 155.645 838.952 155.569 838.792 155.477C838.633 155.385 838.527 155.245 838.476 155.056Z" fill="#155EEF"/>
</g>
<defs>
<filter id="filter0_f_215_1348" x="-387" y="-262" width="980" height="1217" filterUnits="userSpaceOnUse" color-interpolation-filters="sRGB">
<feFlood flood-opacity="0" result="BackgroundImageFix"/>
<feBlend mode="normal" in="SourceGraphic" in2="BackgroundImageFix" result="shape"/>
<feGaussianBlur stdDeviation="104" result="effect1_foregroundBlur_215_1348"/>
</filter>
<filter id="filter1_f_215_1348" x="-252" y="-422" width="1704" height="1538" filterUnits="userSpaceOnUse" color-interpolation-filters="sRGB">
<feFlood flood-opacity="0" result="BackgroundImageFix"/>
<feBlend mode="normal" in="SourceGraphic" in2="BackgroundImageFix" result="shape"/>
<feGaussianBlur stdDeviation="104" result="effect1_foregroundBlur_215_1348"/>
</filter>
<filter id="filter2_f_215_1348" x="694" y="-195" width="1084" height="1084" filterUnits="userSpaceOnUse" color-interpolation-filters="sRGB">
<feFlood flood-opacity="0" result="BackgroundImageFix"/>
<feBlend mode="normal" in="SourceGraphic" in2="BackgroundImageFix" result="shape"/>
<feGaussianBlur stdDeviation="104" result="effect1_foregroundBlur_215_1348"/>
</filter>
<filter id="filter3_f_215_1348" x="223" y="-195" width="1084" height="1084" filterUnits="userSpaceOnUse" color-interpolation-filters="sRGB">
<feFlood flood-opacity="0" result="BackgroundImageFix"/>
<feBlend mode="normal" in="SourceGraphic" in2="BackgroundImageFix" result="shape"/>
<feGaussianBlur stdDeviation="104" result="effect1_foregroundBlur_215_1348"/>
</filter>
<filter id="filter4_f_215_1348" x="26" y="-391" width="1084" height="1084" filterUnits="userSpaceOnUse" color-interpolation-filters="sRGB">
<feFlood flood-opacity="0" result="BackgroundImageFix"/>
<feBlend mode="normal" in="SourceGraphic" in2="BackgroundImageFix" result="shape"/>
<feGaussianBlur stdDeviation="104" result="effect1_foregroundBlur_215_1348"/>
</filter>
<filter id="filter5_f_215_1348" x="-244" y="-391" width="1084" height="1084" filterUnits="userSpaceOnUse" color-interpolation-filters="sRGB">
<feFlood flood-opacity="0" result="BackgroundImageFix"/>
<feBlend mode="normal" in="SourceGraphic" in2="BackgroundImageFix" result="shape"/>
<feGaussianBlur stdDeviation="104" result="effect1_foregroundBlur_215_1348"/>
</filter>
<filter id="filter6_f_215_1348" x="757.303" y="-121" width="935.548" height="935.548" filterUnits="userSpaceOnUse" color-interpolation-filters="sRGB">
<feFlood flood-opacity="0" result="BackgroundImageFix"/>
<feBlend mode="normal" in="SourceGraphic" in2="BackgroundImageFix" result="shape"/>
<feGaussianBlur stdDeviation="104" result="effect1_foregroundBlur_215_1348"/>
</filter>
<filter id="filter7_f_215_1348" x="-146" y="-327" width="1056.24" height="1056.24" filterUnits="userSpaceOnUse" color-interpolation-filters="sRGB">
<feFlood flood-opacity="0" result="BackgroundImageFix"/>
<feBlend mode="normal" in="SourceGraphic" in2="BackgroundImageFix" result="shape"/>
<feGaussianBlur stdDeviation="104" result="effect1_foregroundBlur_215_1348"/>
</filter>
<radialGradient id="paint0_radial_215_1348" cx="0" cy="0" r="1" gradientUnits="userSpaceOnUse" gradientTransform="translate(600 347) rotate(90) scale(561 644)">
<stop stop-color="#BFD2F7"/>
<stop offset="1" stop-color="#E5DCF4" stop-opacity="0"/>
</radialGradient>
<radialGradient id="paint1_radial_215_1348" cx="0" cy="0" r="1" gradientUnits="userSpaceOnUse" gradientTransform="translate(527.5 346.5) rotate(90) scale(343.5)">
<stop stop-color="#FCFEF1"/>
<stop offset="1" stop-color="#FCFEF1" stop-opacity="0"/>
</radialGradient>
<radialGradient id="paint2_radial_215_1348" cx="0" cy="0" r="1" gradientUnits="userSpaceOnUse" gradientTransform="translate(1308.5 346.5) rotate(90) scale(343.5)">
<stop stop-color="#FCFEF1"/>
<stop offset="1" stop-color="#FCFEF1" stop-opacity="0"/>
</radialGradient>
<radialGradient id="paint3_radial_215_1348" cx="0" cy="0" r="1" gradientUnits="userSpaceOnUse" gradientTransform="translate(1236 347) rotate(90) scale(334)">
<stop stop-color="#155EEF" stop-opacity="0.13"/>
<stop offset="1" stop-color="#E5DCF4" stop-opacity="0"/>
</radialGradient>
<radialGradient id="paint4_radial_215_1348" cx="0" cy="0" r="1" gradientUnits="userSpaceOnUse" gradientTransform="translate(765 347) rotate(90) scale(334)">
<stop stop-color="#155EEF" stop-opacity="0.13"/>
<stop offset="1" stop-color="#E5DCF4" stop-opacity="0"/>
</radialGradient>
<radialGradient id="paint5_radial_215_1348" cx="0" cy="0" r="1" gradientUnits="userSpaceOnUse" gradientTransform="translate(568 151) rotate(90) scale(334)">
<stop stop-color="#155EEF" stop-opacity="0.13"/>
<stop offset="1" stop-color="#E5DCF4" stop-opacity="0"/>
</radialGradient>
<radialGradient id="paint6_radial_215_1348" cx="0" cy="0" r="1" gradientUnits="userSpaceOnUse" gradientTransform="translate(298 151) rotate(90) scale(334)">
<stop stop-color="#155EEF" stop-opacity="0.13"/>
<stop offset="1" stop-color="#E5DCF4" stop-opacity="0"/>
</radialGradient>
<radialGradient id="paint7_radial_215_1348" cx="0" cy="0" r="1" gradientUnits="userSpaceOnUse" gradientTransform="translate(209.56 346.561) rotate(90) scale(274.561)">
<stop stop-color="#FCFEF1"/>
<stop offset="1" stop-color="#FCFEF1" stop-opacity="0"/>
</radialGradient>
<radialGradient id="paint8_radial_215_1348" cx="0" cy="0" r="1" gradientUnits="userSpaceOnUse" gradientTransform="translate(1225.08 346.774) rotate(90) scale(259.774)">
<stop stop-color="#E5DCF4"/>
<stop offset="1" stop-color="#E5DCF4" stop-opacity="0"/>
</radialGradient>
<clipPath id="clip0_215_1348">
<rect width="1200" height="630" fill="white"/>
</clipPath>
</defs>
</svg>
