<svg width="180" height="180" viewBox="0 0 180 180" fill="none" xmlns="http://www.w3.org/2000/svg">
<rect width="180" height="180" fill="#155EEF"/>
<path d="M74.9417 155H38V102.744H46.9917V145.598H65.95V96.0754H38V26H94.9833C120.875 26 142 48.5203 142 75.9602C142 103.619 120.875 125.92 94.9833 125.92H79.6V116.081H94.9833C115.675 116.081 132.792 97.8246 132.792 75.7415C132.792 53.6585 115.675 35.4017 94.9833 35.4017H47.2083V86.5644H65.95V51.9093H93.4667C104.95 51.9093 114.158 61.7483 114.158 73.9924C114.158 86.2365 104.733 96.0754 93.4667 96.0754H74.9417V155ZM74.9417 86.4551H93.575C99.9667 86.4551 105.275 80.661 105.275 73.9924C105.275 67.1051 99.9667 61.5297 93.575 61.5297H74.9417V86.4551Z" fill="white"/>
</svg>
