<svg width="176" height="32" viewBox="0 0 176 32" fill="none" xmlns="http://www.w3.org/2000/svg">
<path d="M173.958 22.1897C172.818 22.1897 171.957 21.892 171.374 21.2967C170.792 20.7014 170.5 19.8084 170.5 18.6177V14.1907H168.657V12.4047H170.5V9.9537L172.875 9.3457V12.4047H175.44V14.1907H172.875V18.4657C172.875 19.1244 173.002 19.5867 173.255 19.8527C173.509 20.1187 173.857 20.2517 174.3 20.2517C174.541 20.2517 174.744 20.2327 174.908 20.1947C175.086 20.1567 175.257 20.106 175.421 20.0427V21.9237C175.206 22.0124 174.965 22.0757 174.699 22.1137C174.446 22.1644 174.199 22.1897 173.958 22.1897Z" fill="#155EEF"/>
<path d="M164.119 22.1898C162.51 22.1898 161.25 21.7465 160.338 20.8598C159.426 19.9732 158.97 18.7572 158.97 17.2118C158.97 16.2112 159.166 15.3372 159.559 14.5898C159.951 13.8425 160.496 13.2598 161.193 12.8418C161.902 12.4238 162.725 12.2148 163.663 12.2148C164.587 12.2148 165.36 12.4112 165.981 12.8038C166.601 13.1965 167.07 13.7475 167.387 14.4568C167.716 15.1662 167.881 15.9958 167.881 16.9458V17.5728H160.889V16.3188H166.19L165.867 16.5848C165.867 15.6982 165.677 15.0205 165.297 14.5518C164.929 14.0832 164.391 13.8488 163.682 13.8488C162.896 13.8488 162.288 14.1275 161.858 14.6848C161.44 15.2422 161.231 16.0212 161.231 17.0218V17.2688C161.231 18.3075 161.484 19.0865 161.991 19.6058C162.51 20.1125 163.238 20.3658 164.176 20.3658C164.72 20.3658 165.227 20.2962 165.696 20.1568C166.177 20.0048 166.633 19.7642 167.064 19.4348L167.767 21.0308C167.311 21.3982 166.766 21.6832 166.133 21.8858C165.499 22.0885 164.828 22.1898 164.119 22.1898Z" fill="#155EEF"/>
<path d="M153.71 22.1898C152.101 22.1898 150.841 21.7465 149.929 20.8598C149.017 19.9732 148.561 18.7572 148.561 17.2118C148.561 16.2112 148.757 15.3372 149.15 14.5898C149.542 13.8425 150.087 13.2598 150.784 12.8418C151.493 12.4238 152.316 12.2148 153.254 12.2148C154.178 12.2148 154.951 12.4112 155.572 12.8038C156.192 13.1965 156.661 13.7475 156.978 14.4568C157.307 15.1662 157.472 15.9958 157.472 16.9458V17.5728H150.48V16.3188H155.781L155.458 16.5848C155.458 15.6982 155.268 15.0205 154.888 14.5518C154.52 14.0832 153.982 13.8488 153.273 13.8488C152.487 13.8488 151.879 14.1275 151.449 14.6848C151.031 15.2422 150.822 16.0212 150.822 17.0218V17.2688C150.822 18.3075 151.075 19.0865 151.582 19.6058C152.101 20.1125 152.829 20.3658 153.767 20.3658C154.311 20.3658 154.818 20.2962 155.287 20.1568C155.768 20.0048 156.224 19.7642 156.655 19.4348L157.358 21.0308C156.902 21.3982 156.357 21.6832 155.724 21.8858C155.09 22.0885 154.419 22.1898 153.71 22.1898Z" fill="#155EEF"/>
<path d="M132.75 22V8.60498H134.897L139.818 19.682H139.229L144.15 8.60498H146.278V22H144.055V12.063H144.739L140.236 22H138.773L134.27 12.063H134.973V22H132.75Z" fill="#155EEF"/>
<path d="M122.161 22.1898C121.173 22.1898 120.306 21.9872 119.558 21.5818C118.824 21.1765 118.254 20.6002 117.848 19.8528C117.443 19.0928 117.24 18.1935 117.24 17.1548C117.24 16.1162 117.443 15.2295 117.848 14.4948C118.266 13.7602 118.843 13.1965 119.577 12.8038C120.312 12.4112 121.173 12.2148 122.161 12.2148C122.795 12.2148 123.409 12.3162 124.004 12.5188C124.612 12.7088 125.106 12.9875 125.486 13.3548L124.764 15.0078C124.422 14.6912 124.036 14.4568 123.605 14.3048C123.187 14.1402 122.776 14.0578 122.37 14.0578C121.522 14.0578 120.857 14.3238 120.375 14.8558C119.907 15.3878 119.672 16.1605 119.672 17.1738C119.672 18.1872 119.907 18.9662 120.375 19.5108C120.857 20.0555 121.522 20.3278 122.37 20.3278C122.763 20.3278 123.168 20.2518 123.586 20.0998C124.017 19.9478 124.41 19.7135 124.764 19.3968L125.486 21.0308C125.094 21.3982 124.593 21.6832 123.985 21.8858C123.39 22.0885 122.782 22.1898 122.161 22.1898Z" fill="#1C1B1F"/>
<path d="M112.799 22.0002V12.4052H115.174V22.0002H112.799ZM112.666 10.6002V8.28223H115.307V10.6002H112.666Z" fill="#1C1B1F"/>
<path d="M109.703 22.1897C108.563 22.1897 107.702 21.892 107.119 21.2967C106.537 20.7014 106.245 19.8084 106.245 18.6177V14.1907H104.402V12.4047H106.245V9.9537L108.62 9.3457V12.4047H111.185V14.1907H108.62V18.4657C108.62 19.1244 108.747 19.5867 109 19.8527C109.254 20.1187 109.602 20.2517 110.045 20.2517C110.286 20.2517 110.489 20.2327 110.653 20.1947C110.831 20.1567 111.002 20.106 111.166 20.0427V21.9237C110.951 22.0124 110.71 22.0757 110.444 22.1137C110.191 22.1644 109.944 22.1897 109.703 22.1897Z" fill="#1C1B1F"/>
<path d="M97.5227 22.1898C96.6867 22.1898 95.952 21.9935 95.3187 21.6008C94.6854 21.1955 94.1914 20.6192 93.8367 19.8718C93.482 19.1245 93.3047 18.2315 93.3047 17.1928C93.3047 16.1542 93.482 15.2675 93.8367 14.5328C94.1914 13.7855 94.6854 13.2155 95.3187 12.8228C95.952 12.4175 96.6867 12.2148 97.5227 12.2148C98.3334 12.2148 99.0427 12.4175 99.6507 12.8228C100.271 13.2155 100.683 13.7475 100.886 14.4188H100.677L100.886 12.4048H103.166C103.128 12.7975 103.09 13.1965 103.052 13.6018C103.026 14.0072 103.014 14.4062 103.014 14.7988V21.9998H100.658L100.639 20.0238H100.867C100.664 20.6825 100.252 21.2082 99.6317 21.6008C99.011 21.9935 98.308 22.1898 97.5227 22.1898ZM98.1877 20.3658C98.935 20.3658 99.5367 20.1062 99.9927 19.5868C100.449 19.0548 100.677 18.2568 100.677 17.1928C100.677 16.1288 100.449 15.3372 99.9927 14.8178C99.5367 14.2985 98.935 14.0388 98.1877 14.0388C97.4404 14.0388 96.8387 14.2985 96.3827 14.8178C95.9267 15.3372 95.6987 16.1288 95.6987 17.1928C95.6987 18.2568 95.9204 19.0548 96.3637 19.5868C96.8197 20.1062 97.4277 20.3658 98.1877 20.3658Z" fill="#1C1B1F"/>
<path d="M76.7282 21.9998V14.7988C76.7282 14.4062 76.7155 14.0072 76.6902 13.6018C76.6648 13.1965 76.6268 12.7975 76.5762 12.4048H78.8752L79.0652 14.3048H78.8372C79.1032 13.6462 79.5085 13.1332 80.0532 12.7658C80.6105 12.3985 81.2692 12.2148 82.0292 12.2148C82.7892 12.2148 83.4162 12.3985 83.9102 12.7658C84.4168 13.1205 84.7715 13.6778 84.9742 14.4378H84.6702C84.9362 13.7538 85.3732 13.2155 85.9812 12.8228C86.5892 12.4175 87.2858 12.2148 88.0712 12.2148C89.1478 12.2148 89.9522 12.5315 90.4842 13.1648C91.0162 13.7982 91.2822 14.7862 91.2822 16.1288V21.9998H88.9072V16.2238C88.9072 15.4638 88.7805 14.9192 88.5272 14.5898C88.2738 14.2478 87.8685 14.0768 87.3112 14.0768C86.6525 14.0768 86.1332 14.3112 85.7532 14.7798C85.3732 15.2358 85.1832 15.8565 85.1832 16.6418V21.9998H82.8082V16.2238C82.8082 15.4638 82.6815 14.9192 82.4282 14.5898C82.1748 14.2478 81.7695 14.0768 81.2122 14.0768C80.5535 14.0768 80.0342 14.3112 79.6542 14.7798C79.2868 15.2358 79.1032 15.8565 79.1032 16.6418V21.9998H76.7282Z" fill="#1C1B1F"/>
<path d="M69.3555 26.2558C68.4688 26.2558 67.6645 26.1608 66.9425 25.9708C66.2332 25.7808 65.5998 25.4895 65.0425 25.0968L65.5555 23.3868C65.9228 23.6275 66.3028 23.8238 66.6955 23.9758C67.0882 24.1278 67.4935 24.2418 67.9115 24.3178C68.3295 24.3938 68.7538 24.4318 69.1845 24.4318C70.0712 24.4318 70.7298 24.2102 71.1605 23.7668C71.6038 23.3362 71.8255 22.7155 71.8255 21.9048V19.6058H72.0155C71.8128 20.2645 71.4012 20.7902 70.7805 21.1828C70.1725 21.5755 69.4695 21.7718 68.6715 21.7718C67.8102 21.7718 67.0565 21.5818 66.4105 21.2018C65.7772 20.8092 65.2832 20.2518 64.9285 19.5298C64.5738 18.8078 64.3965 17.9592 64.3965 16.9838C64.3965 16.0085 64.5738 15.1662 64.9285 14.4568C65.2832 13.7348 65.7772 13.1838 66.4105 12.8038C67.0565 12.4112 67.8102 12.2148 68.6715 12.2148C69.4822 12.2148 70.1852 12.4112 70.7805 12.8038C71.3885 13.1838 71.7938 13.7032 71.9965 14.3618L71.8255 14.2478L72.0155 12.4048H74.3145C74.2638 12.7975 74.2258 13.1965 74.2005 13.6018C74.1752 14.0072 74.1625 14.4062 74.1625 14.7988V21.6198C74.1625 23.1272 73.7508 24.2735 72.9275 25.0588C72.1168 25.8568 70.9262 26.2558 69.3555 26.2558ZM69.3175 19.9478C70.0775 19.9478 70.6792 19.6945 71.1225 19.1878C71.5785 18.6685 71.8065 17.9338 71.8065 16.9838C71.8065 16.0338 71.5785 15.3055 71.1225 14.7988C70.6792 14.2922 70.0775 14.0388 69.3175 14.0388C68.5448 14.0388 67.9305 14.2922 67.4745 14.7988C67.0185 15.3055 66.7905 16.0338 66.7905 16.9838C66.7905 17.9338 67.0185 18.6685 67.4745 19.1878C67.9305 19.6945 68.5448 19.9478 69.3175 19.9478Z" fill="#1C1B1F"/>
<path d="M56.8323 22.1898C55.9963 22.1898 55.2616 21.9935 54.6283 21.6008C53.9949 21.1955 53.5009 20.6192 53.1463 19.8718C52.7916 19.1245 52.6143 18.2315 52.6143 17.1928C52.6143 16.1542 52.7916 15.2675 53.1463 14.5328C53.5009 13.7855 53.9949 13.2155 54.6283 12.8228C55.2616 12.4175 55.9963 12.2148 56.8323 12.2148C57.6429 12.2148 58.3523 12.4175 58.9603 12.8228C59.5809 13.2155 59.9926 13.7475 60.1953 14.4188H59.9863L60.1953 12.4048H62.4753C62.4373 12.7975 62.3993 13.1965 62.3613 13.6018C62.3359 14.0072 62.3233 14.4062 62.3233 14.7988V21.9998H59.9673L59.9483 20.0238H60.1763C59.9736 20.6825 59.5619 21.2082 58.9413 21.6008C58.3206 21.9935 57.6176 22.1898 56.8323 22.1898ZM57.4973 20.3658C58.2446 20.3658 58.8463 20.1062 59.3023 19.5868C59.7583 19.0548 59.9863 18.2568 59.9863 17.1928C59.9863 16.1288 59.7583 15.3372 59.3023 14.8178C58.8463 14.2985 58.2446 14.0388 57.4973 14.0388C56.7499 14.0388 56.1483 14.2985 55.6923 14.8178C55.2363 15.3372 55.0083 16.1288 55.0083 17.1928C55.0083 18.2568 55.2299 19.0548 55.6733 19.5868C56.1293 20.1062 56.7373 20.3658 57.4973 20.3658Z" fill="#1C1B1F"/>
<path d="M45.7414 21.9998V14.8558C45.7414 14.4505 45.7287 14.0388 45.7034 13.6208C45.6907 13.2028 45.6591 12.7975 45.6084 12.4048H47.9074L48.1734 15.0268H47.7934C47.9201 14.3935 48.1291 13.8678 48.4204 13.4498C48.7244 13.0318 49.0917 12.7215 49.5224 12.5188C49.9531 12.3162 50.4217 12.2148 50.9284 12.2148C51.1564 12.2148 51.3401 12.2275 51.4794 12.2528C51.6187 12.2655 51.7581 12.2972 51.8974 12.3478L51.8784 14.4378C51.6377 14.3365 51.4287 14.2732 51.2514 14.2478C51.0867 14.2225 50.8777 14.2098 50.6244 14.2098C50.0797 14.2098 49.6174 14.3238 49.2374 14.5518C48.8701 14.7798 48.5914 15.0965 48.4014 15.5018C48.2241 15.9072 48.1354 16.3695 48.1354 16.8888V21.9998H45.7414Z" fill="#1C1B1F"/>
<path d="M33.4824 22V8.60498H39.4294C40.8988 8.60498 42.0198 8.95965 42.7924 9.66898C43.5651 10.3783 43.9514 11.3536 43.9514 12.595C43.9514 13.8236 43.5651 14.799 42.7924 15.521C42.0198 16.243 40.8988 16.604 39.4294 16.604H35.9334V22H33.4824ZM35.9334 14.666H39.1444C39.9551 14.666 40.5631 14.4886 40.9684 14.134C41.3738 13.7666 41.5764 13.2536 41.5764 12.595C41.5764 11.9363 41.3738 11.4296 40.9684 11.075C40.5631 10.7076 39.9551 10.524 39.1444 10.524H35.9334V14.666Z" fill="#1C1B1F"/>
<path d="M9.4223 32H0V19.0373H2.29341V29.6678H7.1289V17.3831H0V0H14.5341C21.138 0 26.5261 5.58644 26.5261 12.3932C26.5261 19.2542 21.138 24.7864 14.5341 24.7864H10.6105V22.3458H14.5341C19.8117 22.3458 24.1775 17.817 24.1775 12.339C24.1775 6.86102 19.8117 2.3322 14.5341 2.3322H2.34867V15.0237H7.1289V6.42712H14.1473C17.0762 6.42712 19.4249 8.8678 19.4249 11.9051C19.4249 14.9424 17.0209 17.3831 14.1473 17.3831H9.4223V32ZM9.4223 14.9966H14.1749C15.8052 14.9966 17.1591 13.5593 17.1591 11.9051C17.1591 10.1966 15.8052 8.81356 14.1749 8.81356H9.4223V14.9966Z" fill="#155EEF"/>
</svg>
