<?xml version="1.0" encoding="utf-8"?>
<!-- Generator: Adobe Illustrator 25.2.3, SVG Export Plug-In . SVG Version: 6.00 Build 0)  -->
<svg version="1.1" id="Layer_1" xmlns="http://www.w3.org/2000/svg" xmlns:xlink="http://www.w3.org/1999/xlink" x="0px" y="0px"
	 viewBox="0 0 532.3 163.1" style="enable-background:new 0 0 532.3 163.1;" xml:space="preserve">
<style type="text/css">
	.st0{fill:#FFFFFF;}
	.st1{fill:#00A571;}
	.st2{fill:#121212;}
</style>
<rect x="0.5" y="0.1" class="st0" width="531.8" height="162.9"/>
<path class="st1" d="M66.3,118.8H44.7V88.6h5.2v24.8H61V84.8H44.7V44.3H78c15.1,0,27.4,13,27.4,28.8c0,16-12.3,28.8-27.4,28.8h-9
	v-5.7h9c12.1,0,22-10.5,22-23.3c0-12.8-10-23.3-22-23.3H50.1v29.6h11V59.3h16.1c6.7,0,12.1,5.7,12.1,12.8c0,7.1-5.5,12.8-12.1,12.8
	H66.3V118.8z M66.3,79.2h10.8c3.7,0,6.8-3.3,6.8-7.2c0-4-3.1-7.2-6.8-7.2H66.3V79.2z"/>
<path class="st2" d="M148.5,75.5c0,5.4-4.2,9.7-9.8,9.7h-6.1v10.2h-4.8V65.8h10.9C144.2,65.8,148.5,70,148.5,75.5z M143.6,75.5
	c0-3-2.1-5.1-5-5.1h-6.1v10.3h6.1C141.5,80.7,143.6,78.5,143.6,75.5z"/>
<path class="st2" d="M163.8,73.9v5c-3-0.2-6.4,1.2-6.4,5.9v10.6h-4.6v-21h4.6V78C158.6,74.9,161.1,73.9,163.8,73.9z"/>
<path class="st2" d="M188.2,74.2v21h-4.6v-3c-1.6,2.2-4.1,3.6-7.3,3.6c-5.7,0-10.5-4.8-10.5-11c0-6.3,4.7-11,10.5-11
	c3.3,0,5.8,1.4,7.3,3.6v-3h4.6V74.2z M183.7,84.8c0-4-2.8-6.7-6.7-6.7c-3.8,0-6.7,2.8-6.7,6.7c0,4,2.8,6.7,6.7,6.7
	C180.9,91.5,183.7,88.6,183.7,84.8z"/>
<path class="st2" d="M215.5,74.2v20.1c0,6.8-5.3,9.9-10.8,9.9c-4.6,0-8.2-1.7-10-5.1l4-2.2c0.9,1.9,2.5,3.2,6.2,3.2
	c4,0,6.3-2.1,6.3-5.8v-2.6c-1.6,2.2-4.1,3.7-7.3,3.7c-5.9,0-10.6-4.8-10.6-10.9c0-6.1,4.7-10.9,10.6-10.9c3.2,0,5.7,1.4,7.3,3.7
	v-3.1H215.5z M211.1,84.5c0-3.8-2.8-6.6-6.7-6.6c-3.8,0-6.7,2.8-6.7,6.6c0,3.8,2.8,6.6,6.7,6.6C208.2,91.1,211.1,88.4,211.1,84.5z"
	/>
<path class="st2" d="M252.7,82.2v13h-4.6V82.4c0-3-1.6-4.6-4.1-4.6c-2.7,0-4.6,1.7-4.6,5.6v11.8h-4.6V82.4c0-3-1.5-4.6-4-4.6
	c-2.6,0-4.7,1.7-4.7,5.6v11.8h-4.6v-21h4.6v2.5c1.4-2.1,3.5-3.1,6.1-3.1c2.7,0,4.7,1.2,5.9,3.3c1.4-2.2,3.6-3.3,6.4-3.3
	C249.5,73.6,252.7,77,252.7,82.2z"/>
<path class="st2" d="M279.7,74.2v21h-4.6v-3c-1.6,2.2-4.1,3.6-7.3,3.6c-5.7,0-10.5-4.8-10.5-11c0-6.3,4.7-11,10.5-11
	c3.3,0,5.8,1.4,7.3,3.6v-3h4.6V74.2z M275.1,84.8c0-4-2.8-6.7-6.7-6.7c-3.8,0-6.7,2.8-6.7,6.7c0,4,2.8,6.7,6.7,6.7
	C272.2,91.5,275.1,88.6,275.1,84.8z"/>
<path class="st2" d="M292.3,78.6v10.2c0,2.7,1.7,2.6,5.2,2.5v4.1c-6.9,0.9-9.8-1.1-9.8-6.6V78.6h-3.8v-4.3h3.8v-4.6l4.6-1.4v5.9h5.2
	v4.3H292.3z"/>
<path class="st2" d="M301.8,68.2c0-1.6,1.4-2.8,2.8-2.8c1.5,0,2.8,1.4,2.8,2.8c0,1.6-1.4,2.8-2.8,2.8
	C303.2,71,301.8,69.7,301.8,68.2z M302.5,74.2h4.6v21h-4.6V74.2z"/>
<path class="st2" d="M312,84.8c0-6.3,4.7-11,11.1-11c4.1,0,7.7,2.1,9.4,5.4l-4,2.2c-0.9-2-3-3.2-5.6-3.2c-3.7,0-6.6,2.8-6.6,6.6
	c0,3.8,2.8,6.6,6.6,6.6c2.5,0,4.6-1.4,5.6-3.2l4,2.2c-1.7,3.3-5.3,5.4-9.4,5.4C316.7,95.8,312,91,312,84.8z"/>
<path class="st1" d="M347,80.6c0-8.5,6.4-15.2,15.4-15.2c5.4,0,10.2,2.7,12.6,7.1l-4.2,2.5c-1.6-2.8-4.7-4.7-8.4-4.7
	c-6.3,0-10.5,4.5-10.5,10.5c0,6.1,4.2,10.5,10.5,10.5c3.7,0,6.9-1.9,8.4-4.7l4.2,2.4c-2.5,4.3-7.2,7.1-12.6,7.1
	C353.5,95.8,347,89.1,347,80.6z"/>
<path class="st1" d="M378.3,84.8c0-6.3,5-11,11.1-11c6.2,0,11.1,4.8,11.1,11c0,6.2-5,11-11.1,11C383.3,95.8,378.3,91,378.3,84.8z
	 M396,84.8c0-3.8-2.8-6.7-6.6-6.7c-3.7,0-6.6,2.8-6.6,6.7c0,3.8,2.8,6.7,6.6,6.7C393.2,91.5,396,88.6,396,84.8z"/>
<path class="st1" d="M426.8,65.8v29.5h-4.6v-3c-1.6,2.2-4.1,3.6-7.3,3.6c-5.7,0-10.5-4.8-10.5-11c0-6.3,4.7-11,10.5-11
	c3.3,0,5.8,1.4,7.3,3.6V66.1h4.6V65.8z M422.2,84.8c0-4-2.8-6.7-6.7-6.7c-3.8,0-6.7,2.8-6.7,6.7c0,4,2.8,6.7,6.7,6.7
	C419.3,91.5,422.2,88.6,422.2,84.8z"/>
<path class="st1" d="M443.2,91.7c2.5,0,4.5-1.1,5.4-2.6l3.7,2.2c-2,2.8-5.1,4.6-9.2,4.6c-6.9,0-11.4-4.7-11.4-11
	c0-6.2,4.5-11,11.1-11c6.3,0,10.5,5.1,10.5,11.1c0,0.6-0.1,1.4-0.1,1.9h-16.7C437.1,90,439.9,91.7,443.2,91.7z M448.8,83
	c-0.6-3.6-3.3-5.2-6.1-5.2c-3.5,0-5.7,2-6.3,5.2H448.8z"/>
<path class="st1" d="M469.3,73.9v5c-3-0.2-6.4,1.2-6.4,5.9v10.6h-4.6v-21h4.6V78C464,74.9,466.6,73.9,469.3,73.9z"/>
<path class="st1" d="M488.2,89.3c0,4.2-3.7,6.4-8.2,6.4c-4.2,0-7.2-1.9-8.5-5l4-2.2c0.6,1.9,2.4,3,4.7,3c2,0,3.6-0.6,3.6-2.4
	c0-3.7-11.3-1.6-11.3-9.2c0-4,3.5-6.4,7.7-6.4c3.5,0,6.3,1.6,7.8,4.3l-3.8,2.1c-0.7-1.6-2.2-2.4-4-2.4c-1.6,0-3.1,0.7-3.1,2.2
	C476.8,83.9,488.2,81.6,488.2,89.3z"/>
</svg>
