<svg width="104" height="104" viewBox="0 0 104 104" fill="none" xmlns="http://www.w3.org/2000/svg">
<rect x="0.5" y="0.5" width="103" height="103" rx="4.5" stroke="#9747FF" stroke-dasharray="10 5"/>
<path d="M45.9188 78H31V57.3407H34.6312V74.2831H42.2875V54.7042H31V27H54.0125C64.4688 27 73 35.9034 73 46.7517C73 57.6864 64.4688 66.5034 54.0125 66.5034H47.8V62.6136H54.0125C62.3688 62.6136 69.2812 55.3958 69.2812 46.6653C69.2812 37.9347 62.3688 30.7169 54.0125 30.7169H34.7188V50.9441H42.2875V37.2432H53.4C58.0375 37.2432 61.7563 41.1331 61.7563 45.9737C61.7563 50.8144 57.95 54.7042 53.4 54.7042H45.9188V78ZM45.9188 50.9009H53.4438C56.025 50.9009 58.1687 48.6102 58.1687 45.9737C58.1687 43.2509 56.025 41.0466 53.4438 41.0466H45.9188V50.9009Z" fill="#155EEF"/>
</svg>
