<svg xmlns="http://www.w3.org/2000/svg" xmlns:xlink="http://www.w3.org/1999/xlink" version="1.1" width="3270" height="1229" style="width: 3270px; height: 1229px; background: #ffffff" viewBox="0 0 3270 1229"><style id="v-3" type="text/css">        .joint-element .scalable * {            vector-effect: non-scaling-stroke;        }    </style><defs joint-selector="defs"><marker id="v-2-527367903" orient="auto" overflow="visible" markerUnits="userSpaceOnUse"><path id="v-61" stroke="#cccccc" fill="#cccccc" transform="rotate(180)" d="M 20 -10 0 0 20 10 Z"></path></marker><marker id="v-21252848929" orient="auto" overflow="visible" markerUnits="userSpaceOnUse"><path id="v-213" stroke="#444444" fill="#444444" transform="rotate(180)" d="M 20 -10 0 0 20 10 Z"></path></marker></defs><g joint-selector="layers"  transform="matrix(1,0,0,1,0,0)"><g  style="pointer-events: none;"></g><g ></g><g  style="user-select: none;"><!--z-index:1--><!--z-index:2--><!--z-index:3--><!--z-index:4--><!--z-index:5--><!--z-index:6--><!--z-index:7--><!--z-index:8--><!--z-index:9--><!--z-index:10--><!--z-index:11--><!--z-index:12--><g   id="j_41"  transform="translate(20,1185)"><g id="v-316"><text  id="v-317" font-size="24px" xml:space="preserve" y="0.8em" font-weight="normal" text-anchor="start" fill="#444444" pointer-events="none" display="block" font-family="Tahoma, Verdana, Helvetica, Arial"><tspan dy="0"  display="none">Tuesday, May 5, 2026 at 3:37 PM Central European Summer Time</tspan></text></g></g><!--z-index:13--><g   id="j_40"  transform="translate(20,1139)"><g id="v-314"><text  id="v-315" font-size="36px" xml:space="preserve" y="0.8em" font-weight="normal" text-anchor="start" fill="#444444" pointer-events="none" display="block" font-family="Tahoma, Verdana, Helvetica, Arial"><tspan dy="0"  display="none">Container View: Pragmatic Meet</tspan></text></g></g><!--z-index:14--><g   id="j_42"  transform="translate(200,335)" style=""><g  id="v-318" style="opacity: 1;"><rect  x="0" y="160" width="400" height="240" rx="70" id="v-320" stroke-width="2" pointer-events="visiblePainted" fill="#ffffff" stroke="#444444" stroke-dasharray="" style="fill: rgb(255, 255, 255); stroke: rgb(68, 68, 68);"></rect><circle  cx="200" cy="88.88888888888889" r="88.88888888888889" id="v-319" stroke-width="2" pointer-events="visiblePainted" fill="#ffffff" stroke="#444444" stroke-dasharray="" style="fill: rgb(255, 255, 255); stroke: rgb(68, 68, 68);"></circle><line  x1="80" y1="266.6666666666667" x2="80" y2="400" id="v-326" stroke="#444444" stroke-width="1" stroke-dasharray="" style="stroke: rgb(68, 68, 68);"></line><line  x1="320" y1="266.6666666666667" x2="320" y2="400" id="v-327" stroke="#444444" stroke-width="1" stroke-dasharray="" style="stroke: rgb(68, 68, 68);"></line><text  id="v-321" font-size="33.599999999999994px" xml:space="preserve" y="250.8" font-weight="bold" text-anchor="middle" pointer-events="visible" font-family="Tahoma, Verdana, Helvetica, Arial" fill="#444444" dominant-baseline="hanging" transform="matrix(1,0,0,1,200,0)" style="fill: rgb(68, 68, 68);"><tspan dy="0" >User</tspan></text><text  id="v-322" font-size="16.799999999999997px" xml:space="preserve" y="292.4" text-anchor="middle" font-family="Tahoma, Verdana, Helvetica, Arial" fill="#444444" dominant-baseline="hanging" transform="matrix(1,0,0,1,200,0)" style="display: block; fill: rgb(68, 68, 68);"><tspan dy="0" >[Person]</tspan></text><text  id="v-323" font-size="24px" xml:space="preserve" display="none" y="250.8" text-anchor="middle" font-family="Tahoma, Verdana, Helvetica, Arial" fill="#444444" dominant-baseline="hanging" transform="matrix(1,0,0,1,200,0)" style="display: block; fill: rgb(68, 68, 68);"><tspan dy="0"  style="fill-opacity: 0; stroke-opacity: 0;">-</tspan></text><g  id="v-324" font-weight="normal" text-anchor="middle" color="#444444" transform="matrix(1,0,0,1,197.5,368)" display="none" style="fill: rgb(68, 68, 68);"><g ></g><g ></g><g ></g><g ></g></g><image  id="v-325"></image></g></g><!--z-index:15--><g   id="j_44"  transform="translate(940,160)" style="; opacity: 1;"><g id="v-335"><rect  id="v-336" width="1340" height="829" rx="0" ry="0" stroke-width="2" pointer-events="none" stroke="#696969" fill="#ffffff" opacity="0.6" stroke-dasharray=""></rect><text  id="v-337" font-size="33.599999999999994px" xml:space="preserve" y="790" font-weight="bold" text-anchor="start" pointer-events="visible" font-family="Tahoma, Verdana, Helvetica, Arial" fill="#444444" transform="matrix(1,0,0,1,15,0)"><tspan dy="0" >Pragmatic Meet</tspan></text><text  id="v-338" font-size="16.799999999999997px" xml:space="preserve" y="814" font-weight="normal" text-anchor="start" pointer-events="visible" font-family="Tahoma, Verdana, Helvetica, Arial" fill="#444444" transform="matrix(1,0,0,1,15,0)"><tspan dy="0" >[Software System]</tspan></text><image  id="v-339" pointer-events="visible"></image></g></g><!--z-index:16--><g   id="j_43"  transform="translate(990,385)" style=""><g  id="v-328" style="opacity: 1;"><rect  id="v-329" rx="1" ry="1" stroke-width="2" pointer-events="visiblePainted" fill="#ffe4e1" stroke="#696969" stroke-dasharray="" width="450" height="300" style="fill: rgb(255, 228, 225); stroke: rgb(105, 105, 105);"></rect><text  id="v-330" font-size="33.599999999999994px" xml:space="preserve" y="120.80000000000001" font-weight="bold" text-anchor="middle" pointer-events="visible" font-family="Tahoma, Verdana, Helvetica, Arial" fill="#444444" dominant-baseline="hanging" transform="matrix(1,0,0,1,225,0)" style="fill: rgb(68, 68, 68);"><tspan dy="0" >Mobilizon</tspan></text><text  id="v-331" font-size="16.799999999999997px" xml:space="preserve" y="162.4" text-anchor="middle" font-family="Tahoma, Verdana, Helvetica, Arial" fill="#444444" dominant-baseline="hanging" transform="matrix(1,0,0,1,225,0)" style="display: block; fill: rgb(68, 68, 68);"><tspan dy="0" >[Container]</tspan></text><text  id="v-332" font-size="24px" xml:space="preserve" display="none" y="120.80000000000001" text-anchor="middle" font-family="Tahoma, Verdana, Helvetica, Arial" fill="#444444" dominant-baseline="hanging" transform="matrix(1,0,0,1,225,0)" style="display: block; fill: rgb(68, 68, 68);"><tspan dy="0"  style="fill-opacity: 0; stroke-opacity: 0;">-</tspan></text><g  id="v-333" color="#444444" transform="matrix(1,0,0,1,222.5,268)" display="none" style="fill: rgb(68, 68, 68);"><g ></g><g ></g><g ></g><g ></g></g><image  id="v-334"></image></g></g><!--z-index:17--><g   id="j_45"  transform="translate(1780,210)" style=""><g  id="v-340" style="opacity: 1;"><path  d="M 0,30 a 225,30 0,0,0 450 0 a 225,30 0,0,0 -450 0 l 0,240 a 225,30 0,0,0 450 0 l 0,-240" id="v-341" stroke-width="2" pointer-events="visiblePainted" fill="#f0fff0" stroke="#696969" stroke-dasharray="" style="fill: rgb(240, 255, 240); stroke: rgb(105, 105, 105);"></path><rect  id="v-342" stroke-width="0" pointer-events="visiblePainted" fill="none" stroke="none" width="450" height="270" x="0" y="30"></rect><text  id="v-343" font-size="33.599999999999994px" xml:space="preserve" y="135.8" font-weight="bold" text-anchor="middle" pointer-events="visible" font-family="Tahoma, Verdana, Helvetica, Arial" fill="#000000" dominant-baseline="hanging" transform="matrix(1,0,0,1,225,0)" style="fill: rgb(0, 0, 0);"><tspan dy="0" >Data</tspan></text><text  id="v-344" font-size="16.799999999999997px" xml:space="preserve" y="177.4" text-anchor="middle" font-family="Tahoma, Verdana, Helvetica, Arial" fill="#000000" dominant-baseline="hanging" transform="matrix(1,0,0,1,225,0)" style="display: block; fill: rgb(0, 0, 0);"><tspan dy="0" >[Container]</tspan></text><text  id="v-345" font-size="24px" xml:space="preserve" display="none" y="135.8" text-anchor="middle" font-family="Tahoma, Verdana, Helvetica, Arial" fill="#000000" dominant-baseline="hanging" transform="matrix(1,0,0,1,225,0)" style="display: block; fill: rgb(0, 0, 0);"><tspan dy="0"  style="fill-opacity: 0; stroke-opacity: 0;">-</tspan></text><g  id="v-346" font-weight="normal" text-anchor="middle" color="#000000" transform="matrix(1,0,0,1,222.5,268)" display="none" style="fill: rgb(0, 0, 0);"><g ></g><g ></g><g ></g><g ></g></g><image  id="v-347"></image></g></g><!--z-index:18--><g   id="j_46"  transform="translate(1780,560)" style=""><g  id="v-351" style="opacity: 1;"><rect  id="v-352" rx="10" ry="10" stroke-width="2" pointer-events="visiblePainted" fill="#ffe4e1" stroke="#696969" stroke-dasharray="" x="37.5" width="412.5" height="300" style="fill: rgb(255, 228, 225); stroke: rgb(105, 105, 105);"></rect><rect  id="v-353" rx="5" ry="5" stroke-width="2" pointer-events="visiblePainted" fill="#ffe4e1" stroke="#696969" stroke-dasharray="" x="0" y="22.5" width="75" height="37.5" style="fill: rgb(255, 228, 225); stroke: rgb(105, 105, 105);"></rect><rect  id="v-354" rx="5" ry="5" stroke-width="2" pointer-events="visiblePainted" fill="#ffe4e1" stroke="#696969" stroke-dasharray="" x="0" y="75" width="75" height="37.5" style="fill: rgb(255, 228, 225); stroke: rgb(105, 105, 105);"></rect><text  id="v-355" font-size="33.599999999999994px" xml:space="preserve" y="120.80000000000001" font-weight="bold" text-anchor="middle" pointer-events="visible" font-family="Tahoma, Verdana, Helvetica, Arial" fill="#444444" dominant-baseline="hanging" transform="matrix(1,0,0,1,243.8,0)" style="fill: rgb(68, 68, 68);"><tspan dy="0" >Mobilizon Plugin</tspan></text><text  id="v-356" font-size="16.799999999999997px" xml:space="preserve" y="162.4" text-anchor="middle" font-family="Tahoma, Verdana, Helvetica, Arial" fill="#444444" dominant-baseline="hanging" transform="matrix(1,0,0,1,243.8,0)" style="display: block; fill: rgb(68, 68, 68);"><tspan dy="0" >[Container]</tspan></text><text  id="v-357" font-size="24px" xml:space="preserve" display="none" y="120.80000000000001" text-anchor="middle" font-family="Tahoma, Verdana, Helvetica, Arial" fill="#444444" dominant-baseline="hanging" transform="matrix(1,0,0,1,243.8,0)" style="display: block; fill: rgb(68, 68, 68);"><tspan dy="0"  style="fill-opacity: 0; stroke-opacity: 0;">-</tspan></text><g  id="v-358" font-weight="normal" text-anchor="middle" color="#444444" transform="matrix(1,0,0,1,241.4,268)" display="none" style="fill: rgb(68, 68, 68);"><g ></g><g ></g><g ></g><g ></g></g><image  id="v-359"></image></g></g><!--z-index:19--><g   id="j_47"  transform="translate(2620,560)" style=""><g  id="v-366" style="opacity: 1;"><rect  id="v-367" rx="1" ry="1" stroke-width="2" pointer-events="visiblePainted" fill="#f0fff0" stroke="#696969" stroke-dasharray="" width="450" height="300" style="fill: rgb(240, 255, 240); stroke: rgb(105, 105, 105);"></rect><text  id="v-368" font-size="33.599999999999994px" xml:space="preserve" y="101.30000000000001" font-weight="bold" text-anchor="middle" pointer-events="visible" font-family="Tahoma, Verdana, Helvetica, Arial" fill="#000000" dominant-baseline="hanging" transform="matrix(1,0,0,1,225,0)" style="fill: rgb(0, 0, 0);"><tspan dy="0" >Mobilizon Adapter</tspan></text><text  id="v-369" font-size="16.799999999999997px" xml:space="preserve" y="142.9" text-anchor="middle" font-family="Tahoma, Verdana, Helvetica, Arial" fill="#000000" dominant-baseline="hanging" transform="matrix(1,0,0,1,225,0)" style="display: block; fill: rgb(0, 0, 0);"><tspan dy="0" >[Software System]</tspan></text><text  id="v-370" font-size="24px" xml:space="preserve" y="174.7" text-anchor="middle" font-family="Tahoma, Verdana, Helvetica, Arial" fill="#000000" dominant-baseline="hanging" transform="matrix(1,0,0,1,225,0)" style="display: block; fill: rgb(0, 0, 0);"><tspan dy="0" >Adapts Mobilizon data to Forms</tspan></text><g  id="v-371" color="#000000" transform="matrix(1,0,0,1,210,268)" display="none" style="fill: rgb(0, 0, 0);"><g  transform="translate(5 0)"><svg xmlns="http://www.w3.org/2000/svg" width="20" height="20" fill="currentColor" viewBox="0 0 16 16"><path fill-rule="evenodd" d="M6.5 12a5.5 5.5 0 1 0 0-11 5.5 5.5 0 0 0 0 11zM13 6.5a6.5 6.5 0 1 1-13 0 6.5 6.5 0 0 1 13 0z"></path><path d="M10.344 11.742c.03.04.062.078.098.115l3.85 3.85a1 1 0 0 0 1.415-1.414l-3.85-3.85a1.007 1.007 0 0 0-.115-.1 6.538 6.538 0 0 1-1.398 1.4z"></path><path fill-rule="evenodd" d="M6.5 3a.5.5 0 0 1 .5.5V6h2.5a.5.5 0 0 1 0 1H7v2.5a.5.5 0 0 1-1 0V7H3.5a.5.5 0 0 1 0-1H6V3.5a.5.5 0 0 1 .5-.5z"></path></svg></g><g ></g><g ></g><g ></g></g><image  id="v-372"></image></g></g><!--z-index:20--><g   id="j_48"  style="opacity: 1;"><path fill="none" cursor="pointer" stroke="transparent" stroke-linecap="round" joint-selector="wrapper" id="v-381" stroke-width="10" stroke-linejoin="round" d="M 1440 634.68 L 1601 706 C 1607 708.6666666666666 1613.3333333333333 710 1620 710 L 1780 710" style="stroke-width: 10px;"></path><path fill="none" pointer-events="none" joint-selector="line" id="v-380" stroke="#444444" stroke-width="2" stroke-linejoin="round" stroke-dasharray="8 8" d="M 1440 634.68 L 1601 706 C 1607 708.6666666666666 1613.3333333333333 710 1620 710 L 1780 710" marker-end="url(#v-21252848929)"></path><g id="v-373" ><g id="v-374"  label-idx="0" cursor="move" transform="matrix(1,0,0,1,1610.212890625,708.9921875)" style="cursor: default;"><rect joint-selector="rect" id="v-377" fill="#ffffff" rx="3" ry="3" x="-41.33720779418945" y="-15.125578880310059" width="82.6744155883789" height="27.90697479248047" pointer-events="none"  style="display: block;"></rect><text joint-selector="text" id="v-376" font-size="24px" xml:space="preserve" fill="#444444" text-anchor="middle" pointer-events="none" font-family="Tahoma, Verdana, Helvetica, Arial" font-weight="normal"  style="display: block;"><tspan dy="0.3em" >Invokes</tspan></text></g><g id="v-375"  label-idx="1" cursor="move" transform="matrix(1,0,0,1,1600.212890625,720.9921875)" style="cursor: default;"><rect joint-selector="rect" id="v-379" fill="#ffffff" rx="3" ry="3" x="-2.2737367544323206e-13" y="-1.1368683772161603e-13" width="0" height="0"  display="none"></rect><text joint-selector="text" id="v-378" fill="#000000" font-size="14" text-anchor="middle" text-vertical-anchor="middle" pointer-events="none"></text></g></g></g><!--z-index:21--><g   id="j_49"  style="opacity: 1;"><path fill="none" cursor="pointer" stroke="transparent" stroke-linecap="round" joint-selector="wrapper" id="v-390" stroke-width="10" stroke-linejoin="round" d="M 600 535 L 990 535" style="stroke-width: 10px;"></path><path fill="none" pointer-events="none" joint-selector="line" id="v-389" stroke="#444444" stroke-width="2" stroke-linejoin="round" stroke-dasharray="8 8" d="M 600 535 L 990 535" marker-end="url(#v-21252848929)"></path><g id="v-382" ><g id="v-383"  label-idx="0" cursor="move" transform="matrix(1,0,0,1,770,535)" style="cursor: default;"><rect joint-selector="rect" id="v-386" fill="#ffffff" rx="3" ry="3" x="-27.325580596923828" y="-15.125578880310059" width="54.651161193847656" height="27.90697479248047" pointer-events="none"  style="display: block;"></rect><text joint-selector="text" id="v-385" font-size="24px" xml:space="preserve" fill="#444444" text-anchor="middle" pointer-events="none" font-family="Tahoma, Verdana, Helvetica, Arial" font-weight="normal"  style="display: block;"><tspan dy="0.3em" >Uses</tspan></text></g><g id="v-384"  label-idx="1" cursor="move" transform="matrix(1,0,0,1,760,547)" style="cursor: default;"><rect joint-selector="rect" id="v-388" fill="#ffffff" rx="3" ry="3" x="0" y="0" width="0" height="0"  display="none"></rect><text joint-selector="text" id="v-387" fill="#000000" font-size="14" text-anchor="middle" text-vertical-anchor="middle" pointer-events="none"></text></g></g></g><!--z-index:22--><g   id="j_50"  style="opacity: 1;"><path fill="none" cursor="pointer" stroke="transparent" stroke-linecap="round" joint-selector="wrapper" id="v-402" stroke-width="10" stroke-linejoin="round" d="M 1440 435.32 L 1601 364 C 1607 361.3333333333333 1613.3333333333333 360 1620 360 L 1780 360" style="stroke-width: 10px;"></path><path fill="none" pointer-events="none" joint-selector="line" id="v-401" stroke="#444444" stroke-width="2" stroke-linejoin="round" stroke-dasharray="8 8" d="M 1440 435.32 L 1601 364 C 1607 361.3333333333333 1613.3333333333333 360 1620 360 L 1780 360" marker-end="url(#v-21252848929)"></path><g id="v-394" ><g id="v-395"  label-idx="0" cursor="move" transform="matrix(1,0,0,1,1610.212890625,361.0078125)" style="cursor: default;"><rect joint-selector="rect" id="v-398" fill="#ffffff" rx="3" ry="3" x="-85.31976318359375" y="-29.52558135986328" width="170.6395263671875" height="56.70697784423828" pointer-events="none"  style="display: block;"></rect><text joint-selector="text" id="v-397" font-size="24px" xml:space="preserve" fill="#444444" text-anchor="middle" pointer-events="none" font-family="Tahoma, Verdana, Helvetica, Arial" font-weight="normal"  style="display: block;"><tspan dy="-0.3em" >Reads from and</tspan><tspan dy="1.2em" x="0" >writes to</tspan></text></g><g id="v-396"  label-idx="1" cursor="move" transform="matrix(1,0,0,1,1600.212890625,387.4078369140625)" style="cursor: default;"><rect joint-selector="rect" id="v-400" fill="#ffffff" rx="3" ry="3" x="-2.2737367544323206e-13" y="-5.684341886080802e-14" width="0" height="0"  display="none"></rect><text joint-selector="text" id="v-399" fill="#000000" font-size="14" text-anchor="middle" text-vertical-anchor="middle" pointer-events="none"></text></g></g></g><!--z-index:23--><g   id="j_51"  style="opacity: 1;"><path fill="none" cursor="pointer" stroke="transparent" stroke-linecap="round" joint-selector="wrapper" id="v-411" stroke-width="10" stroke-linejoin="round" d="M 2230 710 L 2620 710" style="stroke-width: 10px;"></path><path fill="none" pointer-events="none" joint-selector="line" id="v-410" stroke="#444444" stroke-width="2" stroke-linejoin="round" stroke-dasharray="8 8" d="M 2230 710 L 2620 710" marker-end="url(#v-21252848929)"></path><g id="v-403" ><g id="v-404"  label-idx="0" cursor="move" transform="matrix(1,0,0,1,2450,710)" style="cursor: default;"><rect joint-selector="rect" id="v-407" fill="#ffffff" rx="3" ry="3" x="-26.6569766998291" y="-15.125578880310059" width="53.3139533996582" height="27.90697479248047" pointer-events="none"  style="display: block;"></rect><text joint-selector="text" id="v-406" font-size="24px" xml:space="preserve" fill="#444444" text-anchor="middle" pointer-events="none" font-family="Tahoma, Verdana, Helvetica, Arial" font-weight="normal"  style="display: block;"><tspan dy="0.3em" >Calls</tspan></text></g><g id="v-405"  label-idx="1" cursor="move" transform="matrix(1,0,0,1,2440,722)" style="cursor: default;"><rect joint-selector="rect" id="v-409" fill="#ffffff" rx="3" ry="3" x="0" y="-1.1368683772161603e-13" width="0" height="0"  display="none"></rect><text joint-selector="text" id="v-408" fill="#000000" font-size="14" text-anchor="middle" text-vertical-anchor="middle" pointer-events="none"></text></g></g></g><!--z-index:24--></g><g  style="user-select: none;"></g><g ></g><g  display="none"><g ><g  data-tool-name="vertices" ><path fill="none" stroke="transparent" stroke-width="10" cursor="cell" joint-selector="connection" d="M 1440 634.68 L 1601 706 C 1607 708.6666666666666 1613.3333333333333 710 1620 710 L 1780 710" ></path><circle r="6" fill="#33334F" stroke="#FFFFFF" stroke-width="2" cursor="move"  transform="matrix(2,0,0,2,1610,710)" ></circle></g></g><g ><g  data-tool-name="vertices" ><path fill="none" stroke="transparent" stroke-width="10" cursor="cell" joint-selector="connection" d="M 600 535 L 990 535" ></path></g></g><g ><g  data-tool-name="vertices" ><path fill="none" stroke="transparent" stroke-width="10" cursor="cell" joint-selector="connection" d="M 1440 435.32 L 1601 364 C 1607 361.3333333333333 1613.3333333333333 360 1620 360 L 1780 360" ></path><circle r="6" fill="#33334F" stroke="#FFFFFF" stroke-width="2" cursor="move"  transform="matrix(2,0,0,2,1610,360)" ></circle></g></g><g ><g  data-tool-name="vertices" ><path fill="none" stroke="transparent" stroke-width="10" cursor="cell" joint-selector="connection" d="M 2230 710 L 2620 710" ></path></g></g><!--z-index:1--></g></g></svg>