<svg xmlns="http://www.w3.org/2000/svg" xmlns:xlink="http://www.w3.org/1999/xlink" version="1.1" width="3320" height="968" style="width: 3320px; height: 968px; background: #ffffff" viewBox="0 0 3320 968"><style id="v-3" type="text/css">        .joint-element .scalable * {            vector-effect: non-scaling-stroke;        }    </style><defs joint-selector="defs"><marker id="v-2-527367903" orient="auto" overflow="visible" markerUnits="userSpaceOnUse"><path id="v-61" stroke="#cccccc" fill="#cccccc" transform="rotate(180)" d="M 20 -10 0 0 20 10 Z"></path></marker><marker id="v-21252848929" orient="auto" overflow="visible" markerUnits="userSpaceOnUse"><path id="v-213" stroke="#444444" fill="#444444" transform="rotate(180)" d="M 20 -10 0 0 20 10 Z"></path></marker></defs><g joint-selector="layers"  transform="matrix(1,0,0,1,0,0)"><g  style="pointer-events: none;"></g><g ></g><g  style="user-select: none;"><!--z-index:1--><!--z-index:2--><!--z-index:3--><!--z-index:4--><!--z-index:5--><!--z-index:6--><!--z-index:7--><!--z-index:8--><!--z-index:9--><!--z-index:10--><g   id="j_31"  transform="translate(20,924)"><g id="v-234"><text  id="v-235" font-size="24px" xml:space="preserve" y="0.8em" font-weight="normal" text-anchor="start" fill="#444444" pointer-events="none" display="block" font-family="Tahoma, Verdana, Helvetica, Arial"><tspan dy="0"  display="none">Tuesday, May 5, 2026 at 3:36 PM Central European Summer Time</tspan></text></g></g><!--z-index:11--><g   id="j_30"  transform="translate(20,878)"><g id="v-232"><text  id="v-233" font-size="36px" xml:space="preserve" y="0.8em" font-weight="normal" text-anchor="start" fill="#444444" pointer-events="none" display="block" font-family="Tahoma, Verdana, Helvetica, Arial"><tspan dy="0"  display="none">Container View: Pragmatic Forms</tspan></text></g></g><!--z-index:12--><g   id="j_32"  transform="translate(200,254)" style=""><g  id="v-242" style="opacity: 1;"><rect  id="v-243" rx="1" ry="1" stroke-width="2" pointer-events="visiblePainted" fill="#f0fff0" stroke="#696969" stroke-dasharray="" width="450" height="300" style="fill: rgb(240, 255, 240); stroke: rgb(105, 105, 105);"></rect><text  id="v-244" font-size="33.599999999999994px" xml:space="preserve" y="101.30000000000001" font-weight="bold" text-anchor="middle" pointer-events="visible" font-family="Tahoma, Verdana, Helvetica, Arial" fill="#000000" dominant-baseline="hanging" transform="matrix(1,0,0,1,225,0)" style="fill: rgb(0, 0, 0);"><tspan dy="0" >Mobilizon Adapter</tspan></text><text  id="v-245" font-size="16.799999999999997px" xml:space="preserve" y="142.9" text-anchor="middle" font-family="Tahoma, Verdana, Helvetica, Arial" fill="#000000" dominant-baseline="hanging" transform="matrix(1,0,0,1,225,0)" style="display: block; fill: rgb(0, 0, 0);"><tspan dy="0" >[Software System]</tspan></text><text  id="v-246" font-size="24px" xml:space="preserve" y="174.7" text-anchor="middle" font-family="Tahoma, Verdana, Helvetica, Arial" fill="#000000" dominant-baseline="hanging" transform="matrix(1,0,0,1,225,0)" style="display: block; fill: rgb(0, 0, 0);"><tspan dy="0" >Adapts Mobilizon data to Forms</tspan></text><g  id="v-247" color="#000000" transform="matrix(1,0,0,1,210,268)" display="none" style="fill: rgb(0, 0, 0);"><g  transform="translate(5 0)"><svg xmlns="http://www.w3.org/2000/svg" width="20" height="20" fill="currentColor" viewBox="0 0 16 16"><path fill-rule="evenodd" d="M6.5 12a5.5 5.5 0 1 0 0-11 5.5 5.5 0 0 0 0 11zM13 6.5a6.5 6.5 0 1 1-13 0 6.5 6.5 0 0 1 13 0z"></path><path d="M10.344 11.742c.03.04.062.078.098.115l3.85 3.85a1 1 0 0 0 1.415-1.414l-3.85-3.85a1.007 1.007 0 0 0-.115-.1 6.538 6.538 0 0 1-1.398 1.4z"></path><path fill-rule="evenodd" d="M6.5 3a.5.5 0 0 1 .5.5V6h2.5a.5.5 0 0 1 0 1H7v2.5a.5.5 0 0 1-1 0V7H3.5a.5.5 0 0 1 0-1H6V3.5a.5.5 0 0 1 .5-.5z"></path></svg></g><g ></g><g ></g><g ></g></g><image  id="v-248"></image></g></g><!--z-index:13--><g   id="j_34"  transform="translate(990,159)" style="; opacity: 1;"><g id="v-261"><rect  id="v-262" width="2130" height="568" rx="0" ry="0" stroke-width="2" pointer-events="none" stroke="#696969" fill="#ffffff" opacity="0.6" stroke-dasharray=""></rect><text  id="v-263" font-size="33.599999999999994px" xml:space="preserve" y="529" font-weight="bold" text-anchor="start" pointer-events="visible" font-family="Tahoma, Verdana, Helvetica, Arial" fill="#000000" transform="matrix(1,0,0,1,15,0)"><tspan dy="0" >Pragmatic Forms</tspan></text><text  id="v-264" font-size="16.799999999999997px" xml:space="preserve" y="553" font-weight="normal" text-anchor="start" pointer-events="visible" font-family="Tahoma, Verdana, Helvetica, Arial" fill="#000000" transform="matrix(1,0,0,1,15,0)"><tspan dy="0" >[Software System]</tspan></text><image  id="v-265" pointer-events="visible"></image></g></g><!--z-index:14--><g   id="j_33"  transform="translate(1830,254)" style=""><g  id="v-252" style="opacity: 1;"><rect  id="v-253" rx="10" ry="10" stroke-width="2" pointer-events="visiblePainted" fill="#ffffff" stroke="#444444" stroke-dasharray="" x="37.5" width="412.5" height="300" style="fill: rgb(255, 255, 255); stroke: rgb(68, 68, 68);"></rect><rect  id="v-254" rx="5" ry="5" stroke-width="2" pointer-events="visiblePainted" fill="#ffffff" stroke="#444444" stroke-dasharray="" x="0" y="22.5" width="75" height="37.5" style="fill: rgb(255, 255, 255); stroke: rgb(68, 68, 68);"></rect><rect  id="v-255" rx="5" ry="5" stroke-width="2" pointer-events="visiblePainted" fill="#ffffff" stroke="#444444" stroke-dasharray="" x="0" y="75" width="75" height="37.5" style="fill: rgb(255, 255, 255); stroke: rgb(68, 68, 68);"></rect><text  id="v-256" font-size="33.599999999999994px" xml:space="preserve" y="120.80000000000001" font-weight="bold" text-anchor="middle" pointer-events="visible" font-family="Tahoma, Verdana, Helvetica, Arial" fill="#444444" dominant-baseline="hanging" transform="matrix(1,0,0,1,243.8,0)" style="fill: rgb(68, 68, 68);"><tspan dy="0" >Forms Engine</tspan></text><text  id="v-257" font-size="16.799999999999997px" xml:space="preserve" y="162.4" text-anchor="middle" font-family="Tahoma, Verdana, Helvetica, Arial" fill="#444444" dominant-baseline="hanging" transform="matrix(1,0,0,1,243.8,0)" style="display: block; fill: rgb(68, 68, 68);"><tspan dy="0" >[Container]</tspan></text><text  id="v-258" font-size="24px" xml:space="preserve" display="none" y="120.80000000000001" text-anchor="middle" font-family="Tahoma, Verdana, Helvetica, Arial" fill="#444444" dominant-baseline="hanging" transform="matrix(1,0,0,1,243.8,0)" style="display: block; fill: rgb(68, 68, 68);"><tspan dy="0"  style="fill-opacity: 0; stroke-opacity: 0;">-</tspan></text><g  id="v-259" font-weight="normal" text-anchor="middle" color="#444444" transform="matrix(1,0,0,1,241.4,268)" display="none" style="fill: rgb(68, 68, 68);"><g ></g><g ></g><g ></g><g ></g></g><image  id="v-260"></image></g></g><!--z-index:15--><g   id="j_35"  transform="translate(2620,254)" style=""><g  id="v-266" style="opacity: 1;"><path  d="M 0,30 a 225,30 0,0,0 450 0 a 225,30 0,0,0 -450 0 l 0,240 a 225,30 0,0,0 450 0 l 0,-240" id="v-267" stroke-width="2" pointer-events="visiblePainted" fill="#f0fff0" stroke="#696969" stroke-dasharray="" style="fill: rgb(240, 255, 240); stroke: rgb(105, 105, 105);"></path><rect  id="v-268" stroke-width="0" pointer-events="visiblePainted" fill="none" stroke="none" width="450" height="270" x="0" y="30"></rect><text  id="v-269" font-size="33.599999999999994px" xml:space="preserve" y="135.8" font-weight="bold" text-anchor="middle" pointer-events="visible" font-family="Tahoma, Verdana, Helvetica, Arial" fill="#000000" dominant-baseline="hanging" transform="matrix(1,0,0,1,225,0)" style="fill: rgb(0, 0, 0);"><tspan dy="0" >Data</tspan></text><text  id="v-270" font-size="16.799999999999997px" xml:space="preserve" y="177.4" text-anchor="middle" font-family="Tahoma, Verdana, Helvetica, Arial" fill="#000000" dominant-baseline="hanging" transform="matrix(1,0,0,1,225,0)" style="display: block; fill: rgb(0, 0, 0);"><tspan dy="0" >[Container]</tspan></text><text  id="v-271" font-size="24px" xml:space="preserve" display="none" y="135.8" text-anchor="middle" font-family="Tahoma, Verdana, Helvetica, Arial" fill="#000000" dominant-baseline="hanging" transform="matrix(1,0,0,1,225,0)" style="display: block; fill: rgb(0, 0, 0);"><tspan dy="0"  style="fill-opacity: 0; stroke-opacity: 0;">-</tspan></text><g  id="v-272" font-weight="normal" text-anchor="middle" color="#000000" transform="matrix(1,0,0,1,222.5,268)" display="none" style="fill: rgb(0, 0, 0);"><g ></g><g ></g><g ></g><g ></g></g><image  id="v-273"></image></g></g><!--z-index:16--><g   id="j_36"  transform="translate(1040,209)" style=""><g  id="v-274" style="opacity: 1;"><polygon  id="v-275" stroke-width="2" pointer-events="visiblePainted" fill="#f0fff0" stroke="#696969" stroke-dasharray="" points="112.5,0 337.5,0 450,194.5 337.5,389 112.5,389 0,194.5" style="fill: rgb(240, 255, 240); stroke: rgb(105, 105, 105);"></polygon><text  id="v-276" font-size="33.599999999999994px" xml:space="preserve" y="165.3" font-weight="bold" text-anchor="middle" pointer-events="visible" font-family="Tahoma, Verdana, Helvetica, Arial" fill="#000000" dominant-baseline="hanging" transform="matrix(1,0,0,1,225,0)" style="fill: rgb(0, 0, 0);"><tspan dy="0" >API</tspan></text><text  id="v-277" font-size="16.799999999999997px" xml:space="preserve" y="206.9" text-anchor="middle" font-family="Tahoma, Verdana, Helvetica, Arial" fill="#000000" dominant-baseline="hanging" transform="matrix(1,0,0,1,225,0)" style="display: block; fill: rgb(0, 0, 0);"><tspan dy="0" >[Container]</tspan></text><text  id="v-278" font-size="24px" xml:space="preserve" display="none" y="165.3" text-anchor="middle" font-family="Tahoma, Verdana, Helvetica, Arial" fill="#000000" dominant-baseline="hanging" transform="matrix(1,0,0,1,225,0)" style="display: block; fill: rgb(0, 0, 0);"><tspan dy="0"  style="fill-opacity: 0; stroke-opacity: 0;">-</tspan></text><g  id="v-279" font-weight="normal" text-anchor="middle" color="#000000" transform="matrix(1,0,0,1,222.5,357)" display="none" style="fill: rgb(0, 0, 0);"><g ></g><g ></g><g ></g><g ></g></g><image  id="v-280"></image></g></g><!--z-index:17--><g   id="j_37"  style="opacity: 1;"><path fill="none" cursor="pointer" stroke="transparent" stroke-linecap="round" joint-selector="wrapper" id="v-289" stroke-width="10" stroke-linejoin="round" d="M 650 403.87 L 1040 403.63"></path><path fill="none" pointer-events="none" joint-selector="line" id="v-288" stroke="#444444" stroke-width="2" stroke-linejoin="round" stroke-dasharray="8 8" d="M 650 403.87 L 1040 403.63" marker-end="url(#v-21252848929)"></path><g id="v-281" ><g id="v-282"  label-idx="0" cursor="move" transform="matrix(1,0,0,1,820,403.765380859375)" style="cursor: default;"><rect joint-selector="rect" id="v-285" fill="#ffffff" rx="3" ry="3" x="-37.34011459350586" y="-15.125578880310059" width="74.68022918701172" height="27.90697479248047" pointer-events="none"  style="display: block;"></rect><text joint-selector="text" id="v-284" font-size="24px" xml:space="preserve" fill="#444444" text-anchor="middle" pointer-events="none" font-family="Tahoma, Verdana, Helvetica, Arial" font-weight="normal"  style="display: block;"><tspan dy="0.3em" >Adapts</tspan></text></g><g id="v-283"  label-idx="1" cursor="move" transform="matrix(1,0,0,1,810,415.765380859375)" style="cursor: default;"><rect joint-selector="rect" id="v-287" fill="#ffffff" rx="3" ry="3" x="0" y="-5.684341886080802e-14" width="0" height="0"  display="none"></rect><text joint-selector="text" id="v-286" fill="#000000" font-size="14" text-anchor="middle" text-vertical-anchor="middle" pointer-events="none"></text></g></g></g><!--z-index:18--><g   id="j_38"  style="opacity: 1;"><path fill="none" cursor="pointer" stroke="transparent" stroke-linecap="round" joint-selector="wrapper" id="v-301" stroke-width="10" stroke-linejoin="round" d="M 2280 404 L 2620 404" style="stroke-width: 10px;"></path><path fill="none" pointer-events="none" joint-selector="line" id="v-300" stroke="#444444" stroke-width="2" stroke-linejoin="round" stroke-dasharray="8 8" d="M 2280 404 L 2620 404" marker-end="url(#v-21252848929)"></path><g id="v-293" ><g id="v-294"  label-idx="0" cursor="move" transform="matrix(1,0,0,1,2450,404)" style="cursor: default;"><rect joint-selector="rect" id="v-297" fill="#ffffff" rx="3" ry="3" x="-90" y="-29.52558135986328" width="180" height="56.70697784423828" pointer-events="none"  style="display: block;"></rect><text joint-selector="text" id="v-296" font-size="24px" xml:space="preserve" fill="#444444" text-anchor="middle" pointer-events="none" font-family="Tahoma, Verdana, Helvetica, Arial" font-weight="normal"  style="display: block;"><tspan dy="-0.3em" >Saves and reads</tspan><tspan dy="1.2em" x="0" >from</tspan></text></g><g id="v-295"  label-idx="1" cursor="move" transform="matrix(1,0,0,1,2440,430.3999938964844)" style="cursor: default;"><rect joint-selector="rect" id="v-299" fill="#ffffff" rx="3" ry="3" x="0" y="-2.842170943040401e-14" width="0" height="0"  display="none"></rect><text joint-selector="text" id="v-298" fill="#000000" font-size="14" text-anchor="middle" text-vertical-anchor="middle" pointer-events="none"></text></g></g></g><!--z-index:19--><g   id="j_39"  style="opacity: 1;"><path fill="none" cursor="pointer" stroke="transparent" stroke-linecap="round" joint-selector="wrapper" id="v-313" stroke-width="10" stroke-linejoin="round" d="M 1490 403.64 L 1830 403.86" style="stroke-width: 10px;"></path><path fill="none" pointer-events="none" joint-selector="line" id="v-312" stroke="#444444" stroke-width="2" stroke-linejoin="round" stroke-dasharray="8 8" d="M 1490 403.64 L 1830 403.86" marker-end="url(#v-21252848929)"></path><g id="v-305" ><g id="v-306"  label-idx="0" cursor="move" transform="matrix(1,0,0,1,1660,403.75)" style="cursor: default;"><rect joint-selector="rect" id="v-309" fill="#ffffff" rx="3" ry="3" x="-91.30813598632812" y="-15.125578880310059" width="182.61627197265625" height="27.90697479248047" pointer-events="none"  style="display: block;"></rect><text joint-selector="text" id="v-308" font-size="24px" xml:space="preserve" fill="#444444" text-anchor="middle" pointer-events="none" font-family="Tahoma, Verdana, Helvetica, Arial" font-weight="normal"  style="display: block;"><tspan dy="0.3em" >Serves data from</tspan></text></g><g id="v-307"  label-idx="1" cursor="move" transform="matrix(1,0,0,1,1650,415.75)" style="cursor: default;"><rect joint-selector="rect" id="v-311" fill="#ffffff" rx="3" ry="3" x="0" y="-2.842170943040401e-14" width="0" height="0"  display="none"></rect><text joint-selector="text" id="v-310" fill="#000000" font-size="14" text-anchor="middle" text-vertical-anchor="middle" pointer-events="none"></text></g></g></g><!--z-index:20--></g><g  style="user-select: none;"></g><g ></g><g  display="none"><g ><g  data-tool-name="vertices" ><path fill="none" stroke="transparent" stroke-width="10" cursor="cell" joint-selector="connection" d="M 650 403.87 L 1040 403.63" ></path></g></g><g ><g  data-tool-name="vertices" ><path fill="none" stroke="transparent" stroke-width="10" cursor="cell" joint-selector="connection" d="M 2280 404 L 2620 404" ></path></g></g><g ><g  data-tool-name="vertices" ><path fill="none" stroke="transparent" stroke-width="10" cursor="cell" joint-selector="connection" d="M 1490 403.64 L 1830 403.86" ></path></g></g><!--z-index:1--></g></g></svg>