<svg xmlns="http://www.w3.org/2000/svg" xmlns:xlink="http://www.w3.org/1999/xlink" version="1.1" width="2930" height="1718" style="width: 2930px; height: 1718px; background: #ffffff" viewBox="0 0 2930 1718"><style id="v-3" type="text/css">        .joint-element .scalable * {            vector-effect: non-scaling-stroke;        }    </style><defs joint-selector="defs"><marker id="v-2-527367903" orient="auto" overflow="visible" markerUnits="userSpaceOnUse"><path id="v-61" stroke="#cccccc" fill="#cccccc" transform="rotate(180)" d="M 20 -10 0 0 20 10 Z"></path></marker><marker id="v-21252848929" orient="auto" overflow="visible" markerUnits="userSpaceOnUse"><path id="v-213" stroke="#444444" fill="#444444" transform="rotate(180)" d="M 20 -10 0 0 20 10 Z"></path></marker></defs><g joint-selector="layers"  transform="matrix(1,0,0,1,0,0)"><g  style="pointer-events: none;"></g><g ></g><g  style="user-select: none;"><!--z-index:1--><!--z-index:2--><!--z-index:3--><!--z-index:4--><!--z-index:5--><!--z-index:6--><!--z-index:7--><!--z-index:8--><!--z-index:9--><!--z-index:10--><g   id="j_21"  transform="translate(20,1674)"><g id="v-157"><text  id="v-158" font-size="24px" xml:space="preserve" y="0.8em" font-weight="normal" text-anchor="start" fill="#444444" pointer-events="none" display="block" font-family="Tahoma, Verdana, Helvetica, Arial"><tspan dy="0"  display="none">Tuesday, May 5, 2026 at 3:34 PM Central European Summer Time</tspan></text></g></g><!--z-index:11--><g   id="j_20"  transform="translate(20,1628)"><g id="v-155"><text  id="v-156" font-size="36px" xml:space="preserve" y="0.8em" font-weight="normal" text-anchor="start" fill="#444444" pointer-events="none" display="block" font-family="Tahoma, Verdana, Helvetica, Arial"><tspan dy="0"  display="none">Container View: Mobilizon Adapter</tspan></text></g></g><!--z-index:12--><g   id="j_22"  transform="translate(399,651)" style=""><g  id="v-162" style="opacity: 1;"><rect  id="v-163" rx="1" ry="1" stroke-width="2" pointer-events="visiblePainted" fill="#ffe4e1" stroke="#696969" stroke-dasharray="" width="450" height="300" style="fill: rgb(255, 228, 225); stroke: rgb(105, 105, 105);"></rect><text  id="v-164" font-size="33.599999999999994px" xml:space="preserve" y="101.30000000000001" font-weight="bold" text-anchor="middle" pointer-events="visible" font-family="Tahoma, Verdana, Helvetica, Arial" fill="#444444" dominant-baseline="hanging" transform="matrix(1,0,0,1,225,0)" style="fill: rgb(68, 68, 68);"><tspan dy="0" >Pragmatic Meet</tspan></text><text  id="v-165" font-size="16.799999999999997px" xml:space="preserve" y="142.9" text-anchor="middle" font-family="Tahoma, Verdana, Helvetica, Arial" fill="#444444" dominant-baseline="hanging" transform="matrix(1,0,0,1,225,0)" style="display: block; fill: rgb(68, 68, 68);"><tspan dy="0" >[Software System]</tspan></text><text  id="v-166" font-size="24px" xml:space="preserve" y="174.7" text-anchor="middle" font-family="Tahoma, Verdana, Helvetica, Arial" fill="#444444" dominant-baseline="hanging" transform="matrix(1,0,0,1,225,0)" style="display: block; fill: rgb(68, 68, 68);"><tspan dy="0" >Mobilizon instance on steroids</tspan></text><g  id="v-167" color="#444444" transform="matrix(1,0,0,1,210,268)" display="none" style="fill: rgb(68, 68, 68);"><g  transform="translate(5 0)"><svg xmlns="http://www.w3.org/2000/svg" width="20" height="20" fill="currentColor" viewBox="0 0 16 16"><path fill-rule="evenodd" d="M6.5 12a5.5 5.5 0 1 0 0-11 5.5 5.5 0 0 0 0 11zM13 6.5a6.5 6.5 0 1 1-13 0 6.5 6.5 0 0 1 13 0z"></path><path d="M10.344 11.742c.03.04.062.078.098.115l3.85 3.85a1 1 0 0 0 1.415-1.414l-3.85-3.85a1.007 1.007 0 0 0-.115-.1 6.538 6.538 0 0 1-1.398 1.4z"></path><path fill-rule="evenodd" d="M6.5 3a.5.5 0 0 1 .5.5V6h2.5a.5.5 0 0 1 0 1H7v2.5a.5.5 0 0 1-1 0V7H3.5a.5.5 0 0 1 0-1H6V3.5a.5.5 0 0 1 .5-.5z"></path></svg></g><g ></g><g ></g><g ></g></g><image  id="v-168"></image></g></g><!--z-index:13--><g   id="j_24"  transform="translate(1189,360)" style="; opacity: 1;"><g id="v-176"><rect  id="v-177" width="550" height="918" rx="0" ry="0" stroke-width="2" pointer-events="none" stroke="#696969" fill="#ffffff" opacity="0.6" stroke-dasharray=""></rect><text  id="v-178" font-size="33.599999999999994px" xml:space="preserve" y="879" font-weight="bold" text-anchor="start" pointer-events="visible" font-family="Tahoma, Verdana, Helvetica, Arial" fill="#000000" transform="matrix(1,0,0,1,15,0)"><tspan dy="0" >Mobilizon Adapter</tspan></text><text  id="v-179" font-size="16.799999999999997px" xml:space="preserve" y="903" font-weight="normal" text-anchor="start" pointer-events="visible" font-family="Tahoma, Verdana, Helvetica, Arial" fill="#000000" transform="matrix(1,0,0,1,15,0)"><tspan dy="0" >[Software System]</tspan></text><image  id="v-180" pointer-events="visible"></image></g></g><!--z-index:14--><g   id="j_23"  transform="translate(1239,410)" style=""><g  id="v-169" style="opacity: 1;"><polygon  id="v-170" stroke-width="2" pointer-events="visiblePainted" fill="#f0fff0" stroke="#696969" stroke-dasharray="" points="112.5,0 337.5,0 450,194.5 337.5,389 112.5,389 0,194.5" style="fill: rgb(240, 255, 240); stroke: rgb(105, 105, 105);"></polygon><text  id="v-171" font-size="33.599999999999994px" xml:space="preserve" y="165.3" font-weight="bold" text-anchor="middle" pointer-events="visible" font-family="Tahoma, Verdana, Helvetica, Arial" fill="#000000" dominant-baseline="hanging" transform="matrix(1,0,0,1,225,0)" style="fill: rgb(0, 0, 0);"><tspan dy="0" >API</tspan></text><text  id="v-172" font-size="16.799999999999997px" xml:space="preserve" y="206.9" text-anchor="middle" font-family="Tahoma, Verdana, Helvetica, Arial" fill="#000000" dominant-baseline="hanging" transform="matrix(1,0,0,1,225,0)" style="display: block; fill: rgb(0, 0, 0);"><tspan dy="0" >[Container]</tspan></text><text  id="v-173" font-size="24px" xml:space="preserve" display="none" y="165.3" text-anchor="middle" font-family="Tahoma, Verdana, Helvetica, Arial" fill="#000000" dominant-baseline="hanging" transform="matrix(1,0,0,1,225,0)" style="display: block; fill: rgb(0, 0, 0);"><tspan dy="0"  style="fill-opacity: 0; stroke-opacity: 0;">-</tspan></text><g  id="v-174" font-weight="normal" text-anchor="middle" color="#000000" transform="matrix(1,0,0,1,222.5,357)" display="none" style="fill: rgb(0, 0, 0);"><g ></g><g ></g><g ></g><g ></g></g><image  id="v-175"></image></g></g><!--z-index:15--><g   id="j_25"  transform="translate(1239,849)" style=""><g  id="v-181" style="opacity: 1;"><rect  id="v-182" rx="10" ry="10" stroke-width="2" pointer-events="visiblePainted" fill="#696969" stroke="#696969" stroke-dasharray="" width="450" height="302" style="fill: rgb(105, 105, 105); stroke: rgb(105, 105, 105);"></rect><rect  id="v-183" rx="10" ry="10" stroke-width="0" pointer-events="visiblePainted" fill="#f0fff0" stroke="#696969" width="446" height="260" x="2" y="40" style="fill: rgb(240, 255, 240);"></rect><ellipse  id="v-190" fill="#f0fff0" cx="20" cy="20" rx="10" ry="10" style="fill: rgb(240, 255, 240);"></ellipse><ellipse  id="v-191" fill="#f0fff0" cx="50" cy="20" rx="10" ry="10" style="fill: rgb(240, 255, 240);"></ellipse><ellipse  id="v-192" fill="#f0fff0" cx="80" cy="20" rx="10" ry="10" style="fill: rgb(240, 255, 240);"></ellipse><rect  id="v-184" rx="10" ry="10" stroke-width="0" pointer-events="visiblePainted" fill="#f0fff0" width="340" height="20" x="100" y="10" style="fill: rgb(240, 255, 240);"></rect><text  id="v-185" font-size="33.599999999999994px" xml:space="preserve" y="140.8" font-weight="bold" text-anchor="middle" pointer-events="visible" font-family="Tahoma, Verdana, Helvetica, Arial" fill="#000000" dominant-baseline="hanging" transform="matrix(1,0,0,1,225,0)" style="fill: rgb(0, 0, 0);"><tspan dy="0" >UI</tspan></text><text  id="v-186" font-size="16.799999999999997px" xml:space="preserve" y="182.4" text-anchor="middle" font-family="Tahoma, Verdana, Helvetica, Arial" fill="#000000" dominant-baseline="hanging" transform="matrix(1,0,0,1,225,0)" style="display: block; fill: rgb(0, 0, 0);"><tspan dy="0" >[Container]</tspan></text><text  id="v-187" font-size="24px" xml:space="preserve" display="none" y="140.8" text-anchor="middle" font-family="Tahoma, Verdana, Helvetica, Arial" fill="#000000" dominant-baseline="hanging" transform="matrix(1,0,0,1,225,0)" style="display: block; fill: rgb(0, 0, 0);"><tspan dy="0"  style="fill-opacity: 0; stroke-opacity: 0;">-</tspan></text><g  id="v-188" font-weight="normal" text-anchor="middle" color="#000000" transform="matrix(1,0,0,1,222.5,268)" display="none" style="fill: rgb(0, 0, 0);"><g ></g><g ></g><g ></g><g ></g></g><image  id="v-189"></image></g></g><!--z-index:16--><g   id="j_26"  transform="translate(2079,454)" style=""><g  id="v-196" style="opacity: 1;"><rect  id="v-197" rx="1" ry="1" stroke-width="2" pointer-events="visiblePainted" fill="#f0fff0" stroke="#696969" stroke-dasharray="" width="450" height="300" style="fill: rgb(240, 255, 240); stroke: rgb(105, 105, 105);"></rect><text  id="v-198" font-size="33.599999999999994px" xml:space="preserve" y="101.30000000000001" font-weight="bold" text-anchor="middle" pointer-events="visible" font-family="Tahoma, Verdana, Helvetica, Arial" fill="#000000" dominant-baseline="hanging" transform="matrix(1,0,0,1,225,0)" style="fill: rgb(0, 0, 0);"><tspan dy="0" >Pragmatic Forms</tspan></text><text  id="v-199" font-size="16.799999999999997px" xml:space="preserve" y="142.9" text-anchor="middle" font-family="Tahoma, Verdana, Helvetica, Arial" fill="#000000" dominant-baseline="hanging" transform="matrix(1,0,0,1,225,0)" style="display: block; fill: rgb(0, 0, 0);"><tspan dy="0" >[Software System]</tspan></text><text  id="v-200" font-size="24px" xml:space="preserve" y="174.7" text-anchor="middle" font-family="Tahoma, Verdana, Helvetica, Arial" fill="#000000" dominant-baseline="hanging" transform="matrix(1,0,0,1,225,0)" style="display: block; fill: rgb(0, 0, 0);"><tspan dy="0" >Standalone Forms Solution</tspan></text><g  id="v-201" color="#000000" transform="matrix(1,0,0,1,210,268)" display="none" style="fill: rgb(0, 0, 0);"><g  transform="translate(5 0)"><svg xmlns="http://www.w3.org/2000/svg" width="20" height="20" fill="currentColor" viewBox="0 0 16 16"><path fill-rule="evenodd" d="M6.5 12a5.5 5.5 0 1 0 0-11 5.5 5.5 0 0 0 0 11zM13 6.5a6.5 6.5 0 1 1-13 0 6.5 6.5 0 0 1 13 0z"></path><path d="M10.344 11.742c.03.04.062.078.098.115l3.85 3.85a1 1 0 0 0 1.415-1.414l-3.85-3.85a1.007 1.007 0 0 0-.115-.1 6.538 6.538 0 0 1-1.398 1.4z"></path><path fill-rule="evenodd" d="M6.5 3a.5.5 0 0 1 .5.5V6h2.5a.5.5 0 0 1 0 1H7v2.5a.5.5 0 0 1-1 0V7H3.5a.5.5 0 0 1 0-1H6V3.5a.5.5 0 0 1 .5-.5z"></path></svg></g><g ></g><g ></g><g ></g></g><image  id="v-202"></image></g></g><!--z-index:17--><g   id="j_27"  style="opacity: 1;"><path fill="none" cursor="pointer" stroke="transparent" stroke-linecap="round" joint-selector="wrapper" id="v-211" stroke-width="10" stroke-linejoin="round" d="M 849 688.78 L 1010 608 C 1015.9999999999999 605.3333333333333 1022.3333333333333 604 1029 604 L 1239 604.25" style="stroke-width: 10px;"></path><path fill="none" pointer-events="none" joint-selector="line" id="v-210" stroke="#444444" stroke-width="2" stroke-linejoin="round" stroke-dasharray="8 8" d="M 849 688.78 L 1010 608 C 1015.9999999999999 605.3333333333333 1022.3333333333333 604 1029 604 L 1239 604.25" marker-end="url(#v-21252848929)"></path><g id="v-203" ><g id="v-204"  label-idx="0" cursor="move" transform="matrix(1,0,0,1,1034.1561279296875,604.0061645507812)" style="cursor: default;"><rect joint-selector="rect" id="v-207" fill="#ffffff" rx="3" ry="3" x="-26.661550521850586" y="-11.628570556640625" width="53.32310104370117" height="25.889286041259766" pointer-events="none"  style="display: block;"></rect><text joint-selector="text" id="v-206" font-size="24px" xml:space="preserve" fill="#444444" text-anchor="middle" pointer-events="none" font-family="Tahoma, Verdana, Helvetica, Arial" font-weight="normal"  style="display: block;"><tspan dy="0.3em" >Calls</tspan></text></g><g id="v-205"  label-idx="1" cursor="move" transform="matrix(1,0,0,1,1024.1561279296875,616.0061645507812)" style="cursor: default;"><rect joint-selector="rect" id="v-209" fill="#ffffff" rx="3" ry="3" x="0" y="0" width="0" height="0"  display="none"></rect><text joint-selector="text" id="v-208" fill="#000000" font-size="14" text-anchor="middle" text-vertical-anchor="middle" pointer-events="none"></text></g></g></g><!--z-index:18--><g   id="j_28"  style="opacity: 1;"><path fill="none" cursor="pointer" stroke="transparent" stroke-linecap="round" joint-selector="wrapper" id="v-222" stroke-width="10" stroke-linejoin="round" d="M 849 913.78 L 1010 995 C 1015.9999999999999 997.6666666666666 1022.3333333333333 999 1029 999 L 1239 999.49" style="stroke-width: 10px;"></path><path fill="none" pointer-events="none" joint-selector="line" id="v-221" stroke="#444444" stroke-width="2" stroke-linejoin="round" stroke-dasharray="8 8" d="M 849 913.78 L 1010 995 C 1015.9999999999999 997.6666666666666 1022.3333333333333 999 1029 999 L 1239 999.49" marker-end="url(#v-21252848929)"></path><g id="v-214" ><g id="v-215"  label-idx="0" cursor="move" transform="matrix(1,0,0,1,1034.0574951171875,999.0117797851562)" style="cursor: default;"><rect joint-selector="rect" id="v-218" fill="#ffffff" rx="3" ry="3" x="-45.306251525878906" y="-11.628570556640625" width="90.61250305175781" height="25.889286041259766" pointer-events="none"  style="display: block;"></rect><text joint-selector="text" id="v-217" font-size="24px" xml:space="preserve" fill="#444444" text-anchor="middle" pointer-events="none" font-family="Tahoma, Verdana, Helvetica, Arial" font-weight="normal"  style="display: block;"><tspan dy="0.3em" >Displays</tspan></text></g><g id="v-216"  label-idx="1" cursor="move" transform="matrix(1,0,0,1,1024.0574951171875,1011.0117797851562)" style="cursor: default;"><rect joint-selector="rect" id="v-220" fill="#ffffff" rx="3" ry="3" x="0" y="0" width="0" height="0"  display="none"></rect><text joint-selector="text" id="v-219" fill="#000000" font-size="14" text-anchor="middle" text-vertical-anchor="middle" pointer-events="none"></text></g></g></g><!--z-index:19--><g   id="j_29"  style="opacity: 1;"><path fill="none" cursor="pointer" stroke="transparent" stroke-linecap="round" joint-selector="wrapper" id="v-231" stroke-width="10" stroke-linejoin="round" d="M 1689 604.37 L 2079 604.13" style="stroke-width: 10px;"></path><path fill="none" pointer-events="none" joint-selector="line" id="v-230" stroke="#444444" stroke-width="2" stroke-linejoin="round" stroke-dasharray="8 8" d="M 1689 604.37 L 2079 604.13" marker-end="url(#v-21252848929)"></path><g id="v-223" ><g id="v-224"  label-idx="0" cursor="move" transform="matrix(1,0,0,1,1884,604.25)" style="cursor: default;"><rect joint-selector="rect" id="v-227" fill="#ffffff" rx="3" ry="3" x="-37.326171875" y="-11.628570556640625" width="74.65234375" height="25.889286041259766" pointer-events="none"  style="display: block;"></rect><text joint-selector="text" id="v-226" font-size="24px" xml:space="preserve" fill="#444444" text-anchor="middle" pointer-events="none" font-family="Tahoma, Verdana, Helvetica, Arial" font-weight="normal"  style="display: block;"><tspan dy="0.3em" >Adapts</tspan></text></g><g id="v-225"  label-idx="1" cursor="move" transform="matrix(1,0,0,1,1874,616.25)" style="cursor: default;"><rect joint-selector="rect" id="v-229" fill="#ffffff" rx="3" ry="3" x="0" y="0" width="0" height="0"  display="none"></rect><text joint-selector="text" id="v-228" fill="#000000" font-size="14" text-anchor="middle" text-vertical-anchor="middle" pointer-events="none"></text></g></g></g><!--z-index:20--></g><g  style="user-select: none;"></g><g ></g><g  display="none"><g ><g  data-tool-name="vertices" ><path fill="none" stroke="transparent" stroke-width="10" cursor="cell" joint-selector="connection" d="M 849 688.78 L 1010 608 C 1015.9999999999999 605.3333333333333 1022.3333333333333 604 1029 604 L 1239 604.25" ></path><circle r="6" fill="#33334F" stroke="#FFFFFF" stroke-width="2" cursor="move"  transform="matrix(2,0,0,2,1019,604)" ></circle></g></g><g ><g  data-tool-name="vertices" ><path fill="none" stroke="transparent" stroke-width="10" cursor="cell" joint-selector="connection" d="M 849 913.78 L 1010 995 C 1015.9999999999999 997.6666666666666 1022.3333333333333 999 1029 999 L 1239 999.49" ></path><circle r="6" fill="#33334F" stroke="#FFFFFF" stroke-width="2" cursor="move"  transform="matrix(2,0,0,2,1019,999)" ></circle></g></g><g ><g  data-tool-name="vertices" ><path fill="none" stroke="transparent" stroke-width="10" cursor="cell" joint-selector="connection" d="M 1689 604.37 L 2079 604.13" ></path></g></g><!--z-index:1--></g></g></svg>