<svg xmlns="http://www.w3.org/2000/svg" xmlns:xlink="http://www.w3.org/1999/xlink" version="1.1" width="3170" height="800" style="width: 3170px; height: 800px; background: #ffffff" viewBox="0 0 3170 800"><style id="v-3" type="text/css">        .joint-element .scalable * {            vector-effect: non-scaling-stroke;        }    </style><defs joint-selector="defs"><marker id="v-2-527367903" orient="auto" overflow="visible" markerUnits="userSpaceOnUse"><path id="v-61" stroke="#cccccc" fill="#cccccc" transform="rotate(180)" d="M 20 -10 0 0 20 10 Z"></path></marker><marker id="v-21252848929" orient="auto" overflow="visible" markerUnits="userSpaceOnUse"><path id="v-137" stroke="#444444" fill="#444444" transform="rotate(180)" d="M 20 -10 0 0 20 10 Z"></path></marker></defs><g joint-selector="layers"  transform="matrix(1,0,0,1,0,0)"><g  style="pointer-events: none;"></g><g ></g><g  style="user-select: none;"><!--z-index:1--><!--z-index:2--><!--z-index:3--><!--z-index:4--><!--z-index:5--><!--z-index:6--><!--z-index:7--><!--z-index:8--><!--z-index:9--><g   id="j_11"  transform="translate(20,756)"><g id="v-82"><text  id="v-83" font-size="24px" xml:space="preserve" y="0.8em" font-weight="normal" text-anchor="start" fill="#444444" pointer-events="none" display="block" font-family="Tahoma, Verdana, Helvetica, Arial"><tspan dy="0"  display="none">Tuesday, May 5, 2026 at 3:38 PM Central European Summer Time</tspan></text></g></g><!--z-index:10--><g   id="j_10"  transform="translate(20,710)"><g id="v-80"><text  id="v-81" font-size="36px" xml:space="preserve" y="0.8em" font-weight="normal" text-anchor="start" fill="#444444" pointer-events="none" display="block" font-family="Tahoma, Verdana, Helvetica, Arial"><tspan dy="0"  display="none">System Landscape View</tspan></text></g></g><!--z-index:11--><g   id="j_12"  transform="translate(200,160)" style=""><g  id="v-84" style="opacity: 1;"><rect  x="0" y="160" width="400" height="240" rx="70" id="v-86" stroke-width="2" pointer-events="visiblePainted" fill="#ffffff" stroke="#444444" stroke-dasharray="" style="fill: rgb(255, 255, 255); stroke: rgb(68, 68, 68);"></rect><circle  cx="200" cy="88.88888888888889" r="88.88888888888889" id="v-85" stroke-width="2" pointer-events="visiblePainted" fill="#ffffff" stroke="#444444" stroke-dasharray="" style="fill: rgb(255, 255, 255); stroke: rgb(68, 68, 68);"></circle><line  x1="80" y1="266.6666666666667" x2="80" y2="400" id="v-92" stroke="#444444" stroke-width="1" stroke-dasharray="" style="stroke: rgb(68, 68, 68);"></line><line  x1="320" y1="266.6666666666667" x2="320" y2="400" id="v-93" stroke="#444444" stroke-width="1" stroke-dasharray="" style="stroke: rgb(68, 68, 68);"></line><text  id="v-87" font-size="33.599999999999994px" xml:space="preserve" y="250.8" font-weight="bold" text-anchor="middle" pointer-events="visible" font-family="Tahoma, Verdana, Helvetica, Arial" fill="#444444" dominant-baseline="hanging" transform="matrix(1,0,0,1,200,0)" style="fill: rgb(68, 68, 68);"><tspan dy="0" >User</tspan></text><text  id="v-88" font-size="16.799999999999997px" xml:space="preserve" y="292.4" text-anchor="middle" font-family="Tahoma, Verdana, Helvetica, Arial" fill="#444444" dominant-baseline="hanging" transform="matrix(1,0,0,1,200,0)" style="display: block; fill: rgb(68, 68, 68);"><tspan dy="0" >[Person]</tspan></text><text  id="v-89" font-size="24px" xml:space="preserve" display="none" y="250.8" text-anchor="middle" font-family="Tahoma, Verdana, Helvetica, Arial" fill="#444444" dominant-baseline="hanging" transform="matrix(1,0,0,1,200,0)" style="display: block; fill: rgb(68, 68, 68);"><tspan dy="0"  style="fill-opacity: 0; stroke-opacity: 0;">-</tspan></text><g  id="v-90" font-weight="normal" text-anchor="middle" color="#444444" transform="matrix(1,0,0,1,197.5,368)" display="none" style="fill: rgb(68, 68, 68);"><g ></g><g ></g><g ></g><g ></g></g><image  id="v-91"></image></g></g><!--z-index:12--><g   id="j_13"  transform="translate(940,210)" style=""><g  id="v-97" style="opacity: 1;"><rect  id="v-98" rx="1" ry="1" stroke-width="2" pointer-events="visiblePainted" fill="#ffe4e1" stroke="#696969" stroke-dasharray="" width="450" height="300" style="fill: rgb(255, 228, 225); stroke: rgb(105, 105, 105);"></rect><text  id="v-99" font-size="33.599999999999994px" xml:space="preserve" y="101.30000000000001" font-weight="bold" text-anchor="middle" pointer-events="visible" font-family="Tahoma, Verdana, Helvetica, Arial" fill="#444444" dominant-baseline="hanging" transform="matrix(1,0,0,1,225,0)" style="fill: rgb(68, 68, 68);"><tspan dy="0" >Pragmatic Meet</tspan></text><text  id="v-100" font-size="16.799999999999997px" xml:space="preserve" y="142.9" text-anchor="middle" font-family="Tahoma, Verdana, Helvetica, Arial" fill="#444444" dominant-baseline="hanging" transform="matrix(1,0,0,1,225,0)" style="display: block; fill: rgb(68, 68, 68);"><tspan dy="0" >[Software System]</tspan></text><text  id="v-101" font-size="24px" xml:space="preserve" y="174.7" text-anchor="middle" font-family="Tahoma, Verdana, Helvetica, Arial" fill="#444444" dominant-baseline="hanging" transform="matrix(1,0,0,1,225,0)" style="display: block; fill: rgb(68, 68, 68);"><tspan dy="0" >Mobilizon instance on steroids</tspan></text><g  id="v-102" color="#444444" transform="matrix(1,0,0,1,210,268)" display="none" style="fill: rgb(68, 68, 68);"><g  transform="translate(5 0)"><svg xmlns="http://www.w3.org/2000/svg" width="20" height="20" fill="currentColor" viewBox="0 0 16 16"><path fill-rule="evenodd" d="M6.5 12a5.5 5.5 0 1 0 0-11 5.5 5.5 0 0 0 0 11zM13 6.5a6.5 6.5 0 1 1-13 0 6.5 6.5 0 0 1 13 0z"></path><path d="M10.344 11.742c.03.04.062.078.098.115l3.85 3.85a1 1 0 0 0 1.415-1.414l-3.85-3.85a1.007 1.007 0 0 0-.115-.1 6.538 6.538 0 0 1-1.398 1.4z"></path><path fill-rule="evenodd" d="M6.5 3a.5.5 0 0 1 .5.5V6h2.5a.5.5 0 0 1 0 1H7v2.5a.5.5 0 0 1-1 0V7H3.5a.5.5 0 0 1 0-1H6V3.5a.5.5 0 0 1 .5-.5z"></path></svg></g><g ></g><g ></g><g ></g></g><image  id="v-103"></image></g></g><!--z-index:13--><g   id="j_14"  transform="translate(1730,210)" style=""><g  id="v-110" style="opacity: 1;"><rect  id="v-111" rx="1" ry="1" stroke-width="2" pointer-events="visiblePainted" fill="#f0fff0" stroke="#696969" stroke-dasharray="" width="450" height="300" style="fill: rgb(240, 255, 240); stroke: rgb(105, 105, 105);"></rect><text  id="v-112" font-size="33.599999999999994px" xml:space="preserve" y="101.30000000000001" font-weight="bold" text-anchor="middle" pointer-events="visible" font-family="Tahoma, Verdana, Helvetica, Arial" fill="#000000" dominant-baseline="hanging" transform="matrix(1,0,0,1,225,0)" style="fill: rgb(0, 0, 0);"><tspan dy="0" >Mobilizon Adapter</tspan></text><text  id="v-113" font-size="16.799999999999997px" xml:space="preserve" y="142.9" text-anchor="middle" font-family="Tahoma, Verdana, Helvetica, Arial" fill="#000000" dominant-baseline="hanging" transform="matrix(1,0,0,1,225,0)" style="display: block; fill: rgb(0, 0, 0);"><tspan dy="0" >[Software System]</tspan></text><text  id="v-114" font-size="24px" xml:space="preserve" y="174.7" text-anchor="middle" font-family="Tahoma, Verdana, Helvetica, Arial" fill="#000000" dominant-baseline="hanging" transform="matrix(1,0,0,1,225,0)" style="display: block; fill: rgb(0, 0, 0);"><tspan dy="0" >Adapts Mobilizon data to Forms</tspan></text><g  id="v-115" color="#000000" transform="matrix(1,0,0,1,210,268)" display="none" style="fill: rgb(0, 0, 0);"><g  transform="translate(5 0)"><svg xmlns="http://www.w3.org/2000/svg" width="20" height="20" fill="currentColor" viewBox="0 0 16 16"><path fill-rule="evenodd" d="M6.5 12a5.5 5.5 0 1 0 0-11 5.5 5.5 0 0 0 0 11zM13 6.5a6.5 6.5 0 1 1-13 0 6.5 6.5 0 0 1 13 0z"></path><path d="M10.344 11.742c.03.04.062.078.098.115l3.85 3.85a1 1 0 0 0 1.415-1.414l-3.85-3.85a1.007 1.007 0 0 0-.115-.1 6.538 6.538 0 0 1-1.398 1.4z"></path><path fill-rule="evenodd" d="M6.5 3a.5.5 0 0 1 .5.5V6h2.5a.5.5 0 0 1 0 1H7v2.5a.5.5 0 0 1-1 0V7H3.5a.5.5 0 0 1 0-1H6V3.5a.5.5 0 0 1 .5-.5z"></path></svg></g><g ></g><g ></g><g ></g></g><image  id="v-116"></image></g></g><!--z-index:14--><g   id="j_15"  transform="translate(2520,210)" style=""><g  id="v-120" style="opacity: 1;"><rect  id="v-121" rx="1" ry="1" stroke-width="2" pointer-events="visiblePainted" fill="#f0fff0" stroke="#696969" stroke-dasharray="" width="450" height="300" style="fill: rgb(240, 255, 240); stroke: rgb(105, 105, 105);"></rect><text  id="v-122" font-size="33.599999999999994px" xml:space="preserve" y="101.30000000000001" font-weight="bold" text-anchor="middle" pointer-events="visible" font-family="Tahoma, Verdana, Helvetica, Arial" fill="#000000" dominant-baseline="hanging" transform="matrix(1,0,0,1,225,0)" style="fill: rgb(0, 0, 0);"><tspan dy="0" >Pragmatic Forms</tspan></text><text  id="v-123" font-size="16.799999999999997px" xml:space="preserve" y="142.9" text-anchor="middle" font-family="Tahoma, Verdana, Helvetica, Arial" fill="#000000" dominant-baseline="hanging" transform="matrix(1,0,0,1,225,0)" style="display: block; fill: rgb(0, 0, 0);"><tspan dy="0" >[Software System]</tspan></text><text  id="v-124" font-size="24px" xml:space="preserve" y="174.7" text-anchor="middle" font-family="Tahoma, Verdana, Helvetica, Arial" fill="#000000" dominant-baseline="hanging" transform="matrix(1,0,0,1,225,0)" style="display: block; fill: rgb(0, 0, 0);"><tspan dy="0" >Standalone Forms Solution</tspan></text><g  id="v-125" color="#000000" transform="matrix(1,0,0,1,210,268)" display="none" style="fill: rgb(0, 0, 0);"><g  transform="translate(5 0)"><svg xmlns="http://www.w3.org/2000/svg" width="20" height="20" fill="currentColor" viewBox="0 0 16 16"><path fill-rule="evenodd" d="M6.5 12a5.5 5.5 0 1 0 0-11 5.5 5.5 0 0 0 0 11zM13 6.5a6.5 6.5 0 1 1-13 0 6.5 6.5 0 0 1 13 0z"></path><path d="M10.344 11.742c.03.04.062.078.098.115l3.85 3.85a1 1 0 0 0 1.415-1.414l-3.85-3.85a1.007 1.007 0 0 0-.115-.1 6.538 6.538 0 0 1-1.398 1.4z"></path><path fill-rule="evenodd" d="M6.5 3a.5.5 0 0 1 .5.5V6h2.5a.5.5 0 0 1 0 1H7v2.5a.5.5 0 0 1-1 0V7H3.5a.5.5 0 0 1 0-1H6V3.5a.5.5 0 0 1 .5-.5z"></path></svg></g><g ></g><g ></g><g ></g></g><image  id="v-126"></image></g></g><!--z-index:15--><g   id="j_16"  style="opacity: 1;"><path fill="none" cursor="pointer" stroke="transparent" stroke-linecap="round" joint-selector="wrapper" id="v-135" stroke-width="10" stroke-linejoin="round" d="M 600 360 L 940 360" style="stroke-width: 10px;"></path><path fill="none" pointer-events="none" joint-selector="line" id="v-134" stroke="#444444" stroke-width="2" stroke-linejoin="round" stroke-dasharray="8 8" d="M 600 360 L 940 360" marker-end="url(#v-21252848929)"></path><g id="v-127" ><g id="v-128"  label-idx="0" cursor="move" transform="matrix(1,0,0,1,770,360)" style="cursor: default;"><rect joint-selector="rect" id="v-131" fill="#ffffff" rx="3" ry="3" x="-27.30414581298828" y="-13.445160865783691" width="54.60829162597656" height="26.543777465820312" pointer-events="none"  style="display: block;"></rect><text joint-selector="text" id="v-130" font-size="24px" xml:space="preserve" fill="#444444" text-anchor="middle" pointer-events="none" font-family="Tahoma, Verdana, Helvetica, Arial" font-weight="normal"  style="display: block;"><tspan dy="0.3em" >Uses</tspan></text></g><g id="v-129"  label-idx="1" cursor="move" transform="matrix(1,0,0,1,760,372)" style="cursor: default;"><rect joint-selector="rect" id="v-133" fill="#ffffff" rx="3" ry="3" x="0" y="-5.684341886080802e-14" width="0" height="0"  display="none"></rect><text joint-selector="text" id="v-132" fill="#000000" font-size="14" text-anchor="middle" text-vertical-anchor="middle" pointer-events="none"></text></g></g></g><!--z-index:16--><g   id="j_17"  style="opacity: 1;"><path fill="none" cursor="pointer" stroke="transparent" stroke-linecap="round" joint-selector="wrapper" id="v-146" stroke-width="10" stroke-linejoin="round" d="M 1390 360 L 1730 360" style="stroke-width: 10px;"></path><path fill="none" pointer-events="none" joint-selector="line" id="v-145" stroke="#444444" stroke-width="2" stroke-linejoin="round" stroke-dasharray="8 8" d="M 1390 360 L 1730 360" marker-end="url(#v-21252848929)"></path><g id="v-138" ><g id="v-139"  label-idx="0" cursor="move" transform="matrix(1,0,0,1,1560,360)" style="cursor: default;"><rect joint-selector="rect" id="v-142" fill="#ffffff" rx="3" ry="3" x="-26.635944366455078" y="-13.445160865783691" width="53.271888732910156" height="26.543777465820312" pointer-events="none"  style="display: block;"></rect><text joint-selector="text" id="v-141" font-size="24px" xml:space="preserve" fill="#444444" text-anchor="middle" pointer-events="none" font-family="Tahoma, Verdana, Helvetica, Arial" font-weight="normal"  style="display: block;"><tspan dy="0.3em" >Calls</tspan></text></g><g id="v-140"  label-idx="1" cursor="move" transform="matrix(1,0,0,1,1550,372)" style="cursor: default;"><rect joint-selector="rect" id="v-144" fill="#ffffff" rx="3" ry="3" x="0" y="-5.684341886080802e-14" width="0" height="0"  display="none"></rect><text joint-selector="text" id="v-143" fill="#000000" font-size="14" text-anchor="middle" text-vertical-anchor="middle" pointer-events="none"></text></g></g></g><!--z-index:17--><g   id="j_18"  style="opacity: 1;"><path fill="none" cursor="pointer" stroke="transparent" stroke-linecap="round" joint-selector="wrapper" id="v-155" stroke-width="10" stroke-linejoin="round" d="M 2180 360 L 2520 360" style="stroke-width: 10px;"></path><path fill="none" pointer-events="none" joint-selector="line" id="v-154" stroke="#444444" stroke-width="2" stroke-linejoin="round" stroke-dasharray="8 8" d="M 2180 360 L 2520 360" marker-end="url(#v-21252848929)"></path><g id="v-147" ><g id="v-148"  label-idx="0" cursor="move" transform="matrix(1,0,0,1,2350,360)" style="cursor: default;"><rect joint-selector="rect" id="v-151" fill="#ffffff" rx="3" ry="3" x="-37.30414581298828" y="-13.445160865783691" width="74.60829162597656" height="26.543777465820312" pointer-events="none"  style="display: block;"></rect><text joint-selector="text" id="v-150" font-size="24px" xml:space="preserve" fill="#444444" text-anchor="middle" pointer-events="none" font-family="Tahoma, Verdana, Helvetica, Arial" font-weight="normal"  style="display: block;"><tspan dy="0.3em" >Adapts</tspan></text></g><g id="v-149"  label-idx="1" cursor="move" transform="matrix(1,0,0,1,2340,372)" style="cursor: default;"><rect joint-selector="rect" id="v-153" fill="#ffffff" rx="3" ry="3" x="0" y="-5.684341886080802e-14" width="0" height="0"  display="none"></rect><text joint-selector="text" id="v-152" fill="#000000" font-size="14" text-anchor="middle" text-vertical-anchor="middle" pointer-events="none"></text></g></g></g><!--z-index:18--></g><g  style="user-select: none;"></g><g ></g><g  display="none"><g ><g  data-tool-name="vertices" ><path fill="none" stroke="transparent" stroke-width="10" cursor="cell" joint-selector="connection" d="M 600 360 L 940 360" ></path></g></g><g ><g  data-tool-name="vertices" ><path fill="none" stroke="transparent" stroke-width="10" cursor="cell" joint-selector="connection" d="M 1390 360 L 1730 360" ></path></g></g><g ><g  data-tool-name="vertices" ><path fill="none" stroke="transparent" stroke-width="10" cursor="cell" joint-selector="connection" d="M 2180 360 L 2520 360" ></path></g></g><!--z-index:1--></g></g></svg>